STARTFONT 2.1
FONT -FontForge-DM Sans SemiBold-Demi-R-Normal-Sans-75-540-100-100--420--
SIZE 54 100 100
FONTBOUNDINGBOX 75 78 -2 -17
COMMENT "Generated by fontforge, http://fontforge.sourceforge.net"
COMMENT "Copyright 2014 The DM Sans Project Authors (https://github.com/googlefonts/dm-fonts)"
STARTPROPERTIES 38
FOUNDRY "FontForge"
FAMILY_NAME "DM Sans SemiBold"
WEIGHT_NAME "Demi"
SLANT "R"
SETWIDTH_NAME "Normal"
ADD_STYLE_NAME "Sans"
PIXEL_SIZE 75
POINT_SIZE 540
RESOLUTION_X 100
RESOLUTION_Y 100
SPACING ""
AVERAGE_WIDTH 0
CHARSET_REGISTRY ""
CHARSET_ENCODING ""
FONTNAME_REGISTRY ""
CHARSET_COLLECTIONS "ISO10646-1"
FONT_NAME "DMSans-SemiBold"
FACE_NAME "DM Sans SemiBold"
COPYRIGHT "Copyright 2014 The DM Sans Project Authors (https://github.com/googlefonts/dm-fonts)"
FONT_VERSION "4.004;gftools[0.9.30]"
FONT_ASCENT 60
FONT_DESCENT 15
UNDERLINE_POSITION -9
UNDERLINE_THICKNESS 4
X_HEIGHT 37
CAP_HEIGHT 52
RAW_ASCENT 800
RAW_DESCENT 200
RELATIVE_WEIGHT 60
RELATIVE_SETWIDTH 50
SUPERSCRIPT_X 0
SUPERSCRIPT_Y 26
SUPERSCRIPT_SIZE 45
SUBSCRIPT_X 0
SUBSCRIPT_Y 5
SUBSCRIPT_SIZE 45
AVG_LOWERCASE_WIDTH 411
AVG_UPPERCASE_WIDTH 493
ENDPROPERTIES
CHARS 94
STARTCHAR exclam
ENCODING 33
SWIDTH 291 0
DWIDTH 22 0
BBX 12 53 5 0
BITMAP
7FE0
7FE0
7FE0
7FE0
7FE0
7FE0
7FE0
7FE0
7FE0
7FE0
7FC0
7FC0
7FC0
7FC0
7FC0
3FC0
3FC0
3FC0
3FC0
3FC0
3FC0
3FC0
3FC0
3FC0
3FC0
3FC0
3FC0
3FC0
3FC0
3FC0
3FC0
3FC0
3FC0
3FC0
3FC0
3FC0
3FC0
0000
0000
0000
0000
0000
0000
1F80
3FC0
7FE0
FFE0
FFF0
FFF0
FFE0
7FE0
3FC0
1F80
ENDCHAR
STARTCHAR quotedbl
ENCODING 34
SWIDTH 344 0
DWIDTH 26 0
BBX 20 16 3 41
BITMAP
FF0FF0
FF0FF0
FF0FF0
FF0FF0
FF0FF0
FF0FF0
FF0FF0
FE0FF0
FE0FE0
FE07E0
FE07E0
7E07E0
7E07E0
7E07E0
7E07E0
7E07E0
ENDCHAR
STARTCHAR numbersign
ENCODING 35
SWIDTH 841 0
DWIDTH 63 0
BBX 57 54 3 0
BITMAP
00001FE0007FC000
00003FE0007FC000
00003FE0007FC000
00003FC0007F8000
00003FC0007F8000
00003FC000FF8000
00007FC000FF8000
00007FC000FF0000
00007F8000FF0000
00007F8000FF0000
00007F8001FF0000
0000FF8001FF0000
0000FF8001FE0000
1FFFFFFFFFFFFF80
1FFFFFFFFFFFFF80
1FFFFFFFFFFFFF80
1FFFFFFFFFFFFF80
1FFFFFFFFFFFFF80
1FFFFFFFFFFFFF80
1FFFFFFFFFFFFF80
1FFFFFFFFFFFFF80
0003FE0007FC0000
0003FE0007F80000
0003FC0007F80000
0003FC000FF80000
0007FC000FF80000
0007FC000FF00000
0007F8000FF00000
0007F8000FF00000
0007F8001FF00000
000FF8001FF00000
000FF8001FE00000
000FF0001FE00000
FFFFFFFFFFFFF800
FFFFFFFFFFFFF800
FFFFFFFFFFFFF800
FFFFFFFFFFFFF800
FFFFFFFFFFFFF800
FFFFFFFFFFFFF800
FFFFFFFFFFFFF800
FFFFFFFFFFFFF800
003FE0007F800000
003FC0007F800000
003FC000FF800000
007FC000FF800000
007FC000FF000000
007FC000FF000000
007F8000FF000000
007F8001FF000000
00FF8001FF000000
00FF8001FE000000
00FF0001FE000000
00FF0001FE000000
01FF0003FE000000
ENDCHAR
STARTCHAR dollar
ENCODING 36
SWIDTH 597 0
DWIDTH 45 0
BBX 38 66 3 -7
BITMAP
00007C0000
00007C0000
00007C0000
00007C0000
00007C0000
00007C0000
0007FFC000
003FFFF000
00FFFFFC00
01FFFFFF00
03FFFFFF80
07FFFFFFC0
0FFFFFFFC0
1FFF7FFFE0
1FFC7CFFF0
3FF87C7FF0
3FF07C3FF0
3FF07C3FF8
3FE07C1FF8
3FE07C1FF8
3FE07C1FF8
3FE07C0000
3FF07C0000
3FF07C0000
3FF87C0000
1FFE7C0000
1FFFFC0000
0FFFFC0000
0FFFFC0000
07FFFF8000
03FFFFF000
00FFFFFC00
007FFFFF00
001FFFFF80
0003FFFFC0
00007FFFE0
00007FFFF0
00007DFFF8
00007C7FF8
00007C3FFC
00007C1FFC
00007C0FFC
00007C0FFC
FFC07C07FC
FFC07C07FC
7FC07C07FC
7FC07C07FC
7FE07C0FFC
7FF07C0FFC
3FF07C1FFC
3FFC7C3FF8
1FFE7C7FF8
1FFFFFFFF0
0FFFFFFFE0
07FFFFFFC0
03FFFFFF80
01FFFFFF00
007FFFFE00
001FFFF000
0001FF8000
00007C0000
00007C0000
00007C0000
00007C0000
00007C0000
00007C0000
ENDCHAR
STARTCHAR percent
ENCODING 37
SWIDTH 868 0
DWIDTH 65 0
BBX 59 54 3 -1
BITMAP
00FFC00000FF8000
03FFF00001FF0000
07FFF80001FF0000
0FFFFC0003FE0000
1FFFFE0003FC0000
3FFFFF0007FC0000
7FC1FF000FF80000
7F807F800FF80000
7F007F801FF00000
FF003F801FF00000
FF003F803FE00000
FE003FC03FC00000
FE003FC07FC00000
FE003FC0FF800000
FE003FC0FF800000
FF003F81FF000000
7F003F81FF000000
7F807F83FE000000
7F80FF83FC000000
3FE3FF07FC000000
3FFFFE0FF8000000
1FFFFE0FF8000000
0FFFFC1FF0000000
07FFF81FF0000000
01FFE03FE0000000
007F803FE0000000
0000007FC0000000
000000FF80020000
000000FF807FF000
000001FF01FFF800
000001FF03FFFE00
000003FE07FFFF00
000003FE0FFFFF80
000007FC1FFFFF80
000007F81FF07FC0
00000FF83FC03FC0
00001FF03FC01FC0
00001FF03F801FE0
00003FE03F800FE0
00003FE03F800FE0
00007FC03F800FE0
00007F803F800FE0
0000FF803F800FE0
0001FF003F801FE0
0001FF003F801FE0
0003FE003FC03FC0
0003FE001FE07FC0
0007FC001FFDFF80
0007F8000FFFFF80
000FF8000FFFFF00
001FF00007FFFE00
001FF00001FFFC00
003FE00000FFF000
00000000001FC000
ENDCHAR
STARTCHAR ampersand
ENCODING 38
SWIDTH 767 0
DWIDTH 58 0
BBX 53 54 3 -1
BITMAP
0000FFF0000000
0007FFFC000000
000FFFFF000000
001FFFFF800000
003FFFFFC00000
007FFFFFE00000
00FFFFFFE00000
00FFC07FF00000
01FF803FF00000
01FF001FF00000
01FF000FF00000
01FF000FF00000
01FF0000000000
01FF0000000000
01FF0000000000
01FF8000000000
00FF8000000000
00FFC000000000
007FE000000000
007FE000000000
003FF000000000
001FF800000000
003FFC00000000
007FFE00000000
01FFFF00000000
03FFFF80000040
07FFFFC000FF80
0FFFFFE000FF80
1FFC7FF001FF00
3FF83FF801FF00
3FF01FFC03FE00
7FE00FFE07FE00
7FC007FF07FC00
7FC003FF8FFC00
FF8001FFCFF800
FF8000FFFFF800
FF80007FFFF000
FF80003FFFE000
FF80001FFFE000
FF80000FFFC000
FF800007FFC000
FFC00003FF8000
7FC00007FFC000
7FE0000FFFE000
7FF8001FFFF000
3FFC00FFFFF800
3FFFFFFFFFFC00
1FFFFFFFFFFE00
0FFFFFFFC7FF00
07FFFFFF83FF80
03FFFFFF01FFC0
00FFFFFC00FFE0
003FFFE0007FF8
0003FE00000000
ENDCHAR
STARTCHAR quotesingle
ENCODING 39
SWIDTH 186 0
DWIDTH 14 0
BBX 8 16 3 41
BITMAP
FF
FF
FF
FF
FF
FF
FF
FF
FF
FE
7E
7E
7E
7E
7E
7E
ENDCHAR
STARTCHAR parenleft
ENCODING 40
SWIDTH 395 0
DWIDTH 30 0
BBX 24 72 3 -11
BITMAP
0001FF
0003FF
0007FE
000FFC
001FF8
003FF0
003FF0
007FE0
00FFC0
00FF80
01FF80
01FF00
03FF00
03FE00
07FE00
07FC00
0FFC00
0FF800
1FF800
1FF000
1FF000
3FF000
3FE000
3FE000
3FE000
7FE000
7FC000
7FC000
7FC000
7FC000
7FC000
7FC000
7FC000
FF8000
FF8000
FF8000
FF8000
FF8000
FF8000
7F8000
7FC000
7FC000
7FC000
7FC000
7FC000
7FC000
7FE000
3FE000
3FE000
3FE000
3FF000
1FF000
1FF000
1FF800
0FF800
0FFC00
07FC00
07FE00
03FE00
03FF00
01FF00
01FF80
00FF80
00FFC0
007FE0
003FE0
003FF0
001FF8
000FFC
0007FE
0003FF
0001FF
ENDCHAR
STARTCHAR parenright
ENCODING 41
SWIDTH 395 0
DWIDTH 30 0
BBX 24 72 2 -11
BITMAP
FFC000
7FE000
3FF000
1FF800
0FF800
0FFC00
07FE00
03FF00
01FF00
01FF80
00FF80
00FFC0
007FE0
003FE0
003FE0
001FF0
001FF0
001FF8
000FF8
000FF8
0007FC
0007FC
0007FC
0003FE
0003FE
0003FE
0003FE
0001FE
0001FF
0001FF
0001FF
0001FF
0001FF
0001FF
0001FF
0001FF
0001FF
0001FF
0001FF
0001FF
0001FF
0001FF
0001FF
0001FF
0001FF
0003FE
0003FE
0003FE
0003FE
0007FC
0007FC
0007FC
000FF8
000FF8
001FF8
001FF0
001FF0
003FF0
003FE0
007FE0
00FFC0
00FF80
01FF80
01FF00
03FF00
07FE00
0FFC00
0FF800
1FF800
3FF000
7FE000
FFC000
ENDCHAR
STARTCHAR asterisk
ENCODING 42
SWIDTH 503 0
DWIDTH 38 0
BBX 28 28 5 27
BITMAP
001F8000
001F8000
001F8000
001F8000
101F8080
181F8180
3E0F87C0
7F0F0FE0
7F8F1FE0
FFEF7FF0
3FFFFFC0
0FFFFF00
01FFF800
007FE000
00FFE000
03FFFC00
1FFFFF00
7FFFFFE0
FFCF3FF0
7F8F1FE0
3F0F0FC0
3E0F03C0
181F8180
101F8080
001F8000
001F8000
001F8000
001F8000
ENDCHAR
STARTCHAR plus
ENCODING 43
SWIDTH 571 0
DWIDTH 43 0
BBX 36 34 3 5
BITMAP
0003FC0000
0003FC0000
0003FC0000
0003FC0000
0003FC0000
0003FC0000
0003FC0000
0003FC0000
0003FC0000
0003FC0000
0003FC0000
0003FC0000
0003FC0000
FFFFFFFFF0
FFFFFFFFF0
FFFFFFFFF0
FFFFFFFFF0
FFFFFFFFF0
FFFFFFFFF0
FFFFFFFFF0
FFFFFFFFF0
0003FC0000
0003FC0000
0003FC0000
0003FC0000
0003FC0000
0003FC0000
0003FC0000
0003FC0000
0003FC0000
0003FC0000
0003FC0000
0003FC0000
0003FC0000
ENDCHAR
STARTCHAR comma
ENCODING 44
SWIDTH 227 0
DWIDTH 17 0
BBX 13 18 1 -9
BITMAP
0FF8
0FF8
0FF0
0FF0
1FF0
1FE0
1FE0
1FC0
1FC0
3FC0
3F80
3F80
3F00
7F00
7F00
7E00
7E00
FE00
ENDCHAR
STARTCHAR hyphen
ENCODING 45
SWIDTH 565 0
DWIDTH 42 0
BBX 31 8 6 18
BITMAP
FFFFFFFE
FFFFFFFE
FFFFFFFE
FFFFFFFE
FFFFFFFE
FFFFFFFE
FFFFFFFE
FFFFFFFE
ENDCHAR
STARTCHAR period
ENCODING 46
SWIDTH 236 0
DWIDTH 18 0
BBX 12 10 3 0
BITMAP
1F80
7FC0
7FE0
FFE0
FFF0
FFF0
FFE0
7FE0
7FC0
1F80
ENDCHAR
STARTCHAR slash
ENCODING 47
SWIDTH 417 0
DWIDTH 31 0
BBX 27 66 2 -8
BITMAP
00003FE0
00003FE0
00003FE0
00003FC0
00007FC0
00007FC0
00007FC0
0000FF80
0000FF80
0000FF80
0000FF00
0001FF00
0001FF00
0001FF00
0003FE00
0003FE00
0003FE00
0003FC00
0007FC00
0007FC00
0007FC00
000FF800
000FF800
000FF800
000FF000
001FF000
001FF000
001FF000
003FE000
003FE000
003FE000
003FC000
007FC000
007FC000
007FC000
00FF8000
00FF8000
00FF8000
00FF0000
01FF0000
01FF0000
01FF0000
03FE0000
03FE0000
03FE0000
03FC0000
07FC0000
07FC0000
07FC0000
07F80000
0FF80000
0FF80000
0FF00000
1FF00000
1FF00000
1FF00000
1FE00000
3FE00000
3FE00000
3FC00000
7FC00000
7FC00000
7FC00000
7F800000
FF800000
FF800000
ENDCHAR
STARTCHAR zero
ENCODING 48
SWIDTH 698 0
DWIDTH 52 0
BBX 46 54 3 -1
BITMAP
0000FFFC0000
0003FFFF8000
000FFFFFE000
003FFFFFF000
007FFFFFF800
00FFFFFFFC00
01FFFFFFFE00
03FFFFFFFF00
07FFE01FFF80
07FF8007FFC0
0FFE0001FFC0
0FFC0000FFE0
1FFC00007FE0
1FF800007FF0
3FF000003FF0
3FF000001FF0
3FE000001FF8
7FE000001FF8
7FE000000FF8
7FC000000FF8
7FC000000FF8
7FC000000FFC
7FC000000FFC
7FC0000007FC
FFC0000007FC
FFC0000007FC
FFC0000007FC
FFC0000007FC
FFC0000007FC
7FC0000007FC
7FC000000FFC
7FC000000FFC
7FC000000FFC
7FC000000FF8
7FE000000FF8
7FE000001FF8
3FE000001FF8
3FF000001FF0
3FF000003FF0
1FF800003FF0
1FF800007FE0
1FFC0000FFE0
0FFE0001FFC0
0FFF0003FFC0
07FFC007FF80
03FFF83FFF80
01FFFFFFFF00
01FFFFFFFE00
00FFFFFFFC00
003FFFFFF800
001FFFFFE000
0007FFFFC000
0001FFFE0000
00003FF00000
ENDCHAR
STARTCHAR one
ENCODING 49
SWIDTH 348 0
DWIDTH 26 0
BBX 19 53 2 0
BITMAP
0007E0
001FE0
007FE0
03FFE0
0FFFE0
3FFFE0
FFFFE0
FFFFE0
FFFFE0
FFFFE0
FFFFE0
FE3FE0
E03FE0
003FE0
003FE0
003FE0
003FE0
003FE0
003FE0
003FE0
003FE0
003FE0
003FE0
003FE0
003FE0
003FE0
003FE0
003FE0
003FE0
003FE0
003FE0
003FE0
003FE0
003FE0
003FE0
003FE0
003FE0
003FE0
003FE0
003FE0
003FE0
003FE0
003FE0
003FE0
003FE0
003FE0
003FE0
003FE0
003FE0
003FE0
003FE0
003FE0
003FE0
ENDCHAR
STARTCHAR two
ENCODING 50
SWIDTH 577 0
DWIDTH 43 0
BBX 36 53 4 0
BITMAP
000FFF0000
007FFFE000
01FFFFF800
03FFFFFC00
07FFFFFE00
0FFFFFFF00
1FFFFFFF00
1FFF0FFF80
3FF803FF80
3FF000FFC0
7FE000FFC0
7FC0007FC0
7FC0007FE0
FF80003FE0
FF80003FE0
FF80003FE0
FF80003FE0
0000003FE0
0000007FE0
0000007FC0
0000007FC0
000000FFC0
000000FF80
000001FF80
000001FF80
000003FF00
000007FE00
000007FE00
00000FFC00
00001FF800
00003FF800
00007FF000
0000FFE000
0001FFC000
0003FF8000
0007FF0000
000FFE0000
001FFC0000
003FF80000
007FF00000
01FFE00000
03FFC00000
07FF000000
0FFE000000
3FFC000000
7FF8000000
FFFFFFFFF0
FFFFFFFFF0
FFFFFFFFF0
FFFFFFFFF0
FFFFFFFFF0
FFFFFFFFF0
FFFFFFFFF0
ENDCHAR
STARTCHAR three
ENCODING 51
SWIDTH 599 0
DWIDTH 45 0
BBX 36 54 4 -1
BITMAP
000FFF8000
007FFFE000
00FFFFF800
03FFFFFC00
07FFFFFE00
0FFFFFFF00
0FFFFFFF80
1FFF0FFF80
3FF801FFC0
3FF000FFC0
3FE0007FE0
7FE0007FE0
7FC0003FE0
7FC0003FE0
7FC0003FE0
0000003FE0
0000003FC0
0000007FC0
0000007FC0
000000FF80
000003FF80
00007FFF00
0007FFFE00
0007FFFC00
0007FFF000
0007FFF000
0007FFFC00
0007FFFF00
0007FFFF80
000007FFC0
000001FFC0
0000007FE0
0000003FE0
0000003FF0
0000001FF0
0000001FF0
0000001FF0
FF80001FF0
FF80001FF0
FF80001FF0
FF80001FF0
FFC0001FF0
FFC0003FF0
7FE0007FE0
7FF000FFE0
3FFC01FFE0
3FFFFFFFC0
1FFFFFFF80
0FFFFFFF00
07FFFFFE00
03FFFFFC00
00FFFFF800
003FFFE000
0003FE0000
ENDCHAR
STARTCHAR four
ENCODING 52
SWIDTH 638 0
DWIDTH 48 0
BBX 42 53 3 0
BITMAP
0000007FE000
000000FFE000
000000FFE000
000001FFE000
000003FFE000
000007FFE000
000007FFE000
00000FFFE000
00001FFFE000
00001FFFE000
00003FFFE000
00007FDFE000
00007F9FE000
0000FF9FE000
0001FF1FE000
0003FE1FE000
0003FE1FE000
0007FC1FE000
000FF81FE000
000FF81FE000
001FF01FE000
003FE01FE000
003FE01FE000
007FC01FE000
00FF801FE000
01FF801FE000
01FF001FE000
03FE001FE000
07FC001FE000
07FC001FE000
0FF8001FE000
1FF0001FE000
1FF0001FE000
3FE0001FE000
7FC0001FE000
FFFFFFFFFFC0
FFFFFFFFFFC0
FFFFFFFFFFC0
FFFFFFFFFFC0
FFFFFFFFFFC0
FFFFFFFFFFC0
FFFFFFFFFFC0
FFFFFFFFFFC0
0000003FE000
0000003FE000
0000003FE000
0000003FE000
0000003FE000
0000003FE000
0000003FE000
0000003FE000
0000003FE000
0000003FE000
ENDCHAR
STARTCHAR five
ENCODING 53
SWIDTH 618 0
DWIDTH 46 0
BBX 37 54 5 -1
BITMAP
07FFFFFFC0
07FFFFFFC0
07FFFFFFC0
07FFFFFFC0
0FFFFFFFC0
0FFFFFFFC0
0FFFFFFFC0
0FFFFFFFC0
0FF0000000
0FF0000000
1FE0000000
1FE0000000
1FE0000000
1FE0000000
1FE0000000
1FC0000000
1FC0000000
3FC0FF8000
3FC7FFF000
3FCFFFF800
3FFFFFFE00
3FFFFFFF00
3FFFFFFF80
3FFFFFFFC0
7FFFFFFFE0
7FFC01FFE0
7FF0007FF0
7FE0003FF0
7FC0001FF0
7FC0001FF8
0000000FF8
0000000FF8
0000000FF8
00000007F8
00000007F8
00000007F8
00000007F8
0000000FF8
0000000FF8
FF80000FF8
FF80000FF8
FFC0001FF0
7FC0003FF0
7FE0003FF0
3FF800FFE0
3FFE01FFE0
1FFFFFFFC0
1FFFFFFF80
0FFFFFFF00
07FFFFFE00
01FFFFFC00
00FFFFF000
003FFFC000
0003FE0000
ENDCHAR
STARTCHAR six
ENCODING 54
SWIDTH 633 0
DWIDTH 47 0
BBX 39 54 4 -1
BITMAP
0003FFE000
000FFFF800
003FFFFE00
007FFFFF00
00FFFFFF80
01FFFFFFC0
03FFFFFFE0
07FFC1FFF0
07FE003FF0
0FFC001FF8
0FF8000FF8
1FF00007F8
1FF00007FC
3FE00007FC
3FE0000000
3FC0000000
7FC0000000
7FC0000000
7F80000000
7F801F8000
FF80FFF800
FF83FFFE00
FF8FFFFF00
FF9FFFFFC0
FFBFFFFFE0
FFFFFFFFE0
FFFFFFFFF0
FFFF00FFF8
FFFC003FF8
FFF8001FFC
FFF0000FFC
FFE00007FC
FFE00003FE
FFC00003FE
FFC00003FE
FFC00003FE
7FC00003FE
7FC00003FE
7FC00003FE
7FC00003FE
3FE00007FC
3FE00007FC
1FF0000FFC
1FF8001FF8
0FFC003FF8
0FFF00FFF0
07FFFFFFF0
03FFFFFFE0
01FFFFFFC0
00FFFFFF80
007FFFFF00
003FFFFC00
0007FFF000
0000FF8000
ENDCHAR
STARTCHAR seven
ENCODING 55
SWIDTH 536 0
DWIDTH 40 0
BBX 36 53 2 0
BITMAP
FFFFFFFFF0
FFFFFFFFF0
FFFFFFFFF0
FFFFFFFFF0
FFFFFFFFF0
FFFFFFFFF0
FFFFFFFFF0
FFFFFFFFE0
0000003FE0
0000003FE0
0000007FC0
0000007FC0
0000007F80
000000FF80
000000FF80
000001FF00
000001FF00
000003FE00
000003FE00
000003FC00
000007FC00
000007FC00
00000FF800
00000FF800
00001FF000
00001FF000
00003FE000
00003FE000
00003FE000
00007FC000
00007FC000
0000FF8000
0000FF8000
0001FF8000
0001FF0000
0001FF0000
0003FE0000
0003FE0000
0007FC0000
0007FC0000
000FFC0000
000FF80000
001FF80000
001FF00000
001FF00000
003FE00000
003FE00000
007FE00000
007FC00000
00FFC00000
00FF800000
00FF800000
01FF800000
ENDCHAR
STARTCHAR eight
ENCODING 56
SWIDTH 625 0
DWIDTH 47 0
BBX 37 54 5 -1
BITMAP
000FFF8000
007FFFF000
01FFFFFC00
03FFFFFE00
07FFFFFF00
0FFFFFFF80
1FFFFFFFC0
3FFE03FFE0
3FF800FFE0
7FF0007FE0
7FE0003FF0
7FC0001FF0
7FC0001FF0
7FC0001FF0
7FC0001FF0
7FC0001FF0
7FC0001FF0
7FC0001FE0
3FE0003FE0
3FF0007FC0
1FF800FFC0
0FFE03FF80
07FFFFFF00
03FFFFFE00
00FFFFF800
01FFFFFC00
03FFFFFE00
0FFFFFFF80
1FFFFFFFC0
3FFC01FFC0
3FF0007FE0
7FE0003FF0
7FC0001FF0
FF80000FF8
FF80000FF8
FF80000FF8
FF00000FF8
FF00000FF8
FF00000FF8
FF80000FF8
FF80000FF8
FF80000FF8
FFC0001FF8
FFE0003FF0
7FF0007FF0
7FFC01FFF0
3FFFFFFFE0
1FFFFFFFC0
0FFFFFFF80
07FFFFFF00
03FFFFFE00
00FFFFF800
003FFFE000
0003FE0000
ENDCHAR
STARTCHAR nine
ENCODING 57
SWIDTH 633 0
DWIDTH 47 0
BBX 40 54 4 -1
BITMAP
0007FF8000
003FFFF000
00FFFFFC00
01FFFFFE00
03FFFFFF00
07FFFFFF80
0FFFFFFFC0
1FFFC7FFE0
1FFC00FFF0
3FF8003FF0
3FF0001FF8
7FE0000FF8
7FC0000FF8
7FC00007FC
7F800007FC
7F800007FC
7F800007FE
FF800007FE
7F800007FE
7F800007FE
7FC00007FE
7FC0000FFE
7FE0000FFE
7FF0001FFF
3FF8003FFF
3FFC00FFFF
1FFFC7FFFF
0FFFFFFDFF
0FFFFFFDFE
07FFFFF9FE
03FFFFF1FE
00FFFFE1FE
007FFF83FE
000FFE03FE
00000003FE
00000003FC
00000003FC
00000007FC
00000007FC
3FC00007F8
3FC0000FF8
3FE0001FF8
3FE0001FF0
1FF0003FF0
1FF8007FE0
1FFE01FFE0
0FFFFFFFC0
07FFFFFF80
03FFFFFF00
01FFFFFE00
00FFFFFC00
007FFFF000
001FFFC000
0001FE0000
ENDCHAR
STARTCHAR colon
ENCODING 58
SWIDTH 239 0
DWIDTH 18 0
BBX 12 38 3 0
BITMAP
1F80
7FC0
7FE0
FFE0
FFF0
FFF0
FFE0
7FE0
7FC0
1F80
0000
0000
0000
0000
0000
0000
0000
0000
0000
0000
0000
0000
0000
0000
0000
0000
0000
0000
1F80
7FC0
7FE0
FFE0
FFF0
FFF0
FFE0
7FE0
7FC0
1F80
ENDCHAR
STARTCHAR semicolon
ENCODING 59
SWIDTH 263 0
DWIDTH 20 0
BBX 14 47 2 -9
BITMAP
07F0
0FF8
0FFC
1FFC
1FFC
1FFC
1FFC
0FFC
0FF8
07F0
0000
0000
0000
0000
0000
0000
0000
0000
0000
0000
0000
0000
0000
0000
0000
0000
0000
0000
0000
0FF8
0FF8
0FF0
0FF0
1FE0
1FE0
1FE0
1FC0
3FC0
3FC0
3F80
3F80
3F00
7F00
7F00
7E00
7E00
FC00
ENDCHAR
STARTCHAR less
ENCODING 60
SWIDTH 571 0
DWIDTH 43 0
BBX 29 34 7 4
BITMAP
00007FF8
0000FFE0
0001FFC0
0003FF80
0007FF00
000FFE00
001FFC00
003FF800
007FF000
00FFE000
01FFC000
03FF8000
07FF0000
0FFE0000
1FFC0000
3FF80000
7FF00000
FFF00000
7FF80000
3FFC0000
1FFE0000
0FFF0000
07FF8000
03FFC000
01FFE000
00FFF000
007FF800
003FFC00
001FFE00
000FFF00
0007FF80
0003FFC0
0001FFE0
0000FFF8
ENDCHAR
STARTCHAR equal
ENCODING 61
SWIDTH 571 0
DWIDTH 43 0
BBX 31 24 6 10
BITMAP
FFFFFFFE
FFFFFFFE
FFFFFFFE
FFFFFFFE
FFFFFFFE
FFFFFFFE
FFFFFFFE
FFFFFFFE
00000000
00000000
00000000
00000000
00000000
00000000
00000000
00000000
00000000
FFFFFFFE
FFFFFFFE
FFFFFFFE
FFFFFFFE
FFFFFFFE
FFFFFFFE
FFFFFFFE
ENDCHAR
STARTCHAR greater
ENCODING 62
SWIDTH 571 0
DWIDTH 43 0
BBX 29 34 7 4
BITMAP
FFF00000
7FF80000
3FFC0000
0FFE0000
07FF0000
03FF8000
01FFC000
00FFE000
007FF000
003FF800
001FFC00
000FFE00
0007FF00
0003FF80
0001FFC0
0000FFE0
00007FF0
00007FF8
0000FFE0
0001FFC0
0003FF80
0007FF00
000FFE00
001FFC00
003FF800
007FF000
00FFE000
01FFC000
03FF8000
07FF0000
0FFE0000
1FFC0000
3FF80000
FFF00000
ENDCHAR
STARTCHAR question
ENCODING 63
SWIDTH 534 0
DWIDTH 40 0
BBX 35 53 2 0
BITMAP
001FFF0000
007FFFE000
01FFFFF000
03FFFFFC00
07FFFFFE00
0FFFFFFF00
1FFFFFFF00
3FFE07FF80
3FF001FFC0
7FE000FFC0
7FC0007FC0
7FC0007FE0
7F80003FE0
7F80003FE0
FF80003FE0
0000003FE0
0000003FE0
0000003FE0
0000003FE0
0000007FC0
0000007FC0
000000FFC0
000001FF80
000007FF80
0007FFFF00
007FFFFE00
007FFFFC00
007FFFF800
007FFFE000
007FFF8000
007FD00000
007F800000
007F800000
007F800000
007F800000
007F800000
007F800000
0000000000
0000000000
0000000000
0000000000
0000000000
0000000000
003F000000
007F800000
00FFC00000
01FFC00000
01FFE00000
01FFE00000
01FFE00000
00FFC00000
007F800000
003F000000
ENDCHAR
STARTCHAR at
ENCODING 64
SWIDTH 1034 0
DWIDTH 78 0
BBX 66 65 6 -16
BITMAP
00000000FFF0000000
0000001FFFFF000000
000000FFFFFFE00000
000007FFFFFFF80000
00001FFFFFFFFE0000
00003FFFFFFFFF0000
0000FFFFC0FFFF8000
0001FFF00007FFC000
0007FF800000FFE000
000FFE0000003FF000
001FF80000000FF800
003FF000000007FC00
007FC000000003FC00
00FF8000000001FE00
01FF0000000001FE00
01FE0000000000FF00
03FC000FF800007F00
07F8003FFE1FC07F80
07F800FFFF1FC03F80
0FF001FFFFBFC03F80
0FE003FFFFFFC03F80
1FE007FFFFFF803FC0
1FC00FFFBFFF801FC0
3FC01FF807FF801FC0
3F801FF001FF801FC0
3F803FE001FF801FC0
7F803FC000FF801FC0
7F007F8000FF001FC0
7F007F8000FF001FC0
7F00FF0000FF001FC0
FE00FF0000FF001FC0
FE00FF0000FF003F80
FE00FE0000FE003F80
FE01FE0000FE003F80
FE01FE0000FE003F80
FE01FE0001FE007F80
FE01FE0001FE007F00
FE01FE0003FE007F00
FE01FF0003FE00FE00
FE01FF0007FC00FE00
FE00FF800FFE01FC00
FE00FFC01FFE03FC00
FE00FFF0FFFE07F800
FE007FFFFEFFFFF800
FE007FFFFEFFFFF000
FF003FFFFC7FFFE000
7F001FFFF03FFFC000
7F000FFFE03FFF0000
7F8003FF800FFC0000
3FC000000000000000
3FC000000000000000
1FE000000000000000
1FF000000000000000
0FF800000000000000
0FFC00000000000000
07FF00000000000000
03FFC0000080000000
01FFF0000F80000000
00FFFFF7FFC0000000
007FFFFFFFC0000000
001FFFFFFFC0000000
0007FFFFFFC0000000
0001FFFFFF80000000
00003FFFFC00000000
000001FF0000000000
ENDCHAR
STARTCHAR A
ENCODING 65
SWIDTH 696 0
DWIDTH 52 0
BBX 48 53 2 0
BITMAP
00001FF80000
00001FF80000
00003FFC0000
00003FFC0000
00003FFE0000
00007FFE0000
00007FFE0000
00007FFF0000
0000FFFF0000
0000FFFF0000
0001FFFF8000
0001FFFF8000
0001FF7FC000
0003FE7FC000
0003FE7FC000
0003FC3FE000
0007FC3FE000
0007FC3FE000
000FF81FF000
000FF81FF000
000FF81FF000
001FF00FF800
001FF00FF800
001FF00FFC00
003FE007FC00
003FE007FC00
003FE007FE00
007FC003FE00
007FC003FE00
00FFC001FF00
00FF8001FF00
00FF8001FF00
01FF0000FF80
01FFFFFFFF80
01FFFFFFFFC0
03FFFFFFFFC0
03FFFFFFFFC0
03FFFFFFFFE0
07FFFFFFFFE0
07FFFFFFFFE0
0FFFFFFFFFF0
0FF800001FF0
0FF800001FF0
1FF800001FF8
1FF000000FF8
1FF000000FFC
3FF0000007FC
3FE0000007FC
3FE0000007FE
7FE0000003FE
7FC0000003FE
FFC0000003FF
FF80000001FF
ENDCHAR
STARTCHAR B
ENCODING 66
SWIDTH 628 0
DWIDTH 47 0
BBX 39 53 5 0
BITMAP
FFFFF80000
FFFFFFF000
FFFFFFFE00
FFFFFFFF00
FFFFFFFFC0
FFFFFFFFE0
FFFFFFFFE0
FFFFFFFFF0
FF8000FFF8
FF80003FF8
FF80001FF8
FF80000FF8
FF80000FFC
FF80000FFC
FF80000FFC
FF80000FFC
FF80000FF8
FF80000FF8
FF80000FF8
FF80001FF8
FF80003FF0
FF80007FE0
FF8007FFC0
FFFFFFFF80
FFFFFFFF00
FFFFFFFC00
FFFFFFFE00
FFFFFFFF80
FFFFFFFFC0
FFFFFFFFE0
FF80007FF0
FF80001FF8
FF80000FF8
FF800007FC
FF800007FC
FF800007FC
FF800003FE
FF800003FE
FF800003FE
FF800007FE
FF800007FE
FF800007FE
FF80000FFC
FF80001FFC
FF80003FFC
FF8003FFF8
FFFFFFFFF8
FFFFFFFFF0
FFFFFFFFE0
FFFFFFFFC0
FFFFFFFF00
FFFFFFFC00
FFFFFFE000
ENDCHAR
STARTCHAR C
ENCODING 67
SWIDTH 732 0
DWIDTH 55 0
BBX 48 54 3 -1
BITMAP
00003FFF8000
0001FFFFF000
0007FFFFFC00
001FFFFFFF00
003FFFFFFF80
007FFFFFFFC0
00FFFFFFFFE0
01FFFFFFFFF0
03FFF001FFF8
07FFC0007FFC
07FF00001FFC
0FFE00000FFE
0FFC00000FFE
1FF8000007FE
1FF8000003FF
3FF0000003FF
3FF0000003FF
3FE000000000
7FE000000000
7FE000000000
7FC000000000
7FC000000000
7FC000000000
7FC000000000
FFC000000000
FFC000000000
FFC000000000
FFC000000000
FFC000000000
7FC000000000
7FC000000000
7FC000000000
7FC000000000
7FC000000000
7FE000000000
7FE000000000
3FE000000000
3FF0000003FF
3FF0000003FF
1FF8000003FF
1FFC000007FE
0FFE00000FFE
0FFF00001FFE
07FF80003FFC
03FFE000FFF8
03FFFC07FFF8
01FFFFFFFFF0
00FFFFFFFFE0
007FFFFFFFC0
001FFFFFFF80
000FFFFFFE00
0003FFFFF800
0000FFFFE000
000007FE0000
ENDCHAR
STARTCHAR D
ENCODING 68
SWIDTH 701 0
DWIDTH 53 0
BBX 44 53 5 0
BITMAP
FFFFC0000000
FFFFFFC00000
FFFFFFFC0000
FFFFFFFF0000
FFFFFFFFC000
FFFFFFFFE000
FFFFFFFFF000
FFFFFFFFF800
FF8003FFFC00
FF80003FFE00
FF80000FFF00
FF800007FF80
FF800003FF80
FF800001FFC0
FF800000FFC0
FF8000007FC0
FF8000007FE0
FF8000007FE0
FF8000003FE0
FF8000003FE0
FF8000003FF0
FF8000003FF0
FF8000001FF0
FF8000001FF0
FF8000001FF0
FF8000001FF0
FF8000001FF0
FF8000001FF0
FF8000001FF0
FF8000001FF0
FF8000001FF0
FF8000001FF0
FF8000003FF0
FF8000003FF0
FF8000003FE0
FF8000003FE0
FF8000007FE0
FF8000007FE0
FF800000FFC0
FF800000FFC0
FF800001FF80
FF800003FF80
FF800007FF00
FF80001FFF00
FF8000FFFE00
FFFFFFFFFC00
FFFFFFFFF800
FFFFFFFFF000
FFFFFFFFE000
FFFFFFFF8000
FFFFFFFE0000
FFFFFFF00000
FFFFFF000000
ENDCHAR
STARTCHAR E
ENCODING 69
SWIDTH 578 0
DWIDTH 43 0
BBX 34 53 5 0
BITMAP
FFFFFFFFC0
FFFFFFFFC0
FFFFFFFFC0
FFFFFFFFC0
FFFFFFFFC0
FFFFFFFFC0
FFFFFFFFC0
FFFFFFFFC0
FF80000000
FF80000000
FF80000000
FF80000000
FF80000000
FF80000000
FF80000000
FF80000000
FF80000000
FF80000000
FF80000000
FF80000000
FF80000000
FF80000000
FF80000000
FFFFFFFF00
FFFFFFFF00
FFFFFFFF00
FFFFFFFF00
FFFFFFFF00
FFFFFFFF00
FFFFFFFF00
FF80000000
FF80000000
FF80000000
FF80000000
FF80000000
FF80000000
FF80000000
FF80000000
FF80000000
FF80000000
FF80000000
FF80000000
FF80000000
FF80000000
FF80000000
FF80000000
FFFFFFFFC0
FFFFFFFFC0
FFFFFFFFC0
FFFFFFFFC0
FFFFFFFFC0
FFFFFFFFC0
FFFFFFFFC0
ENDCHAR
STARTCHAR F
ENCODING 70
SWIDTH 550 0
DWIDTH 41 0
BBX 34 53 5 0
BITMAP
FFFFFFFFC0
FFFFFFFFC0
FFFFFFFFC0
FFFFFFFFC0
FFFFFFFFC0
FFFFFFFFC0
FFFFFFFFC0
FFFFFFFFC0
FF80000000
FF80000000
FF80000000
FF80000000
FF80000000
FF80000000
FF80000000
FF80000000
FF80000000
FF80000000
FF80000000
FF80000000
FF80000000
FF80000000
FF80000000
FFFFFFF800
FFFFFFF800
FFFFFFF800
FFFFFFF800
FFFFFFF800
FFFFFFF800
FFFFFFF800
FF80000000
FF80000000
FF80000000
FF80000000
FF80000000
FF80000000
FF80000000
FF80000000
FF80000000
FF80000000
FF80000000
FF80000000
FF80000000
FF80000000
FF80000000
FF80000000
FF80000000
FF80000000
FF80000000
FF80000000
FF80000000
FF80000000
FF80000000
ENDCHAR
STARTCHAR G
ENCODING 71
SWIDTH 772 0
DWIDTH 58 0
BBX 51 54 3 -1
BITMAP
00001FFFC00000
0000FFFFF80000
0003FFFFFE0000
000FFFFFFF8000
001FFFFFFFE000
007FFFFFFFF000
00FFFFFFFFF800
01FFFFFFFFFC00
03FFFC01FFFC00
03FFE0003FFE00
07FF80000FFF00
0FFF000007FF00
0FFE000003FF00
1FFC000003FF80
1FF8000001FF80
3FF0000001FFC0
3FF00000000000
3FE00000000000
7FE00000000000
7FE00000000000
7FC00000000000
7FC00000000000
7FC00000000000
7FC00000000000
7FC0000FFFFFE0
FFC0000FFFFFE0
FFC0000FFFFFE0
FFC0000FFFFFE0
FFC0000FFFFFE0
7FC0000FFFFFE0
7FC0000FFFFFE0
7FC00000007FE0
7FC00000007FE0
7FC00000007FE0
7FE00000007FE0
7FE00000007FE0
3FE0000000FFE0
3FF0000000FFE0
3FF0000001FFE0
1FF8000001FFE0
1FFC000003FFE0
0FFE000007FFE0
0FFF00000FFFE0
07FF80001FFFE0
03FFE0007FFFE0
03FFFC03FFFFE0
01FFFFFFFFBFE0
00FFFFFFFF3FE0
007FFFFFFE3FE0
001FFFFFFC3FE0
000FFFFFF83FE0
0003FFFFF03FE0
0000FFFFC03FE0
00000FFC000000
ENDCHAR
STARTCHAR H
ENCODING 72
SWIDTH 704 0
DWIDTH 53 0
BBX 42 53 5 0
BITMAP
FF8000007FC0
FF8000007FC0
FF8000007FC0
FF8000007FC0
FF8000007FC0
FF8000007FC0
FF8000007FC0
FF8000007FC0
FF8000007FC0
FF8000007FC0
FF8000007FC0
FF8000007FC0
FF8000007FC0
FF8000007FC0
FF8000007FC0
FF8000007FC0
FF8000007FC0
FF8000007FC0
FF8000007FC0
FF8000007FC0
FF8000007FC0
FF8000007FC0
FF8000007FC0
FFFFFFFFFFC0
FFFFFFFFFFC0
FFFFFFFFFFC0
FFFFFFFFFFC0
FFFFFFFFFFC0
FFFFFFFFFFC0
FFFFFFFFFFC0
FF8000007FC0
FF8000007FC0
FF8000007FC0
FF8000007FC0
FF8000007FC0
FF8000007FC0
FF8000007FC0
FF8000007FC0
FF8000007FC0
FF8000007FC0
FF8000007FC0
FF8000007FC0
FF8000007FC0
FF8000007FC0
FF8000007FC0
FF8000007FC0
FF8000007FC0
FF8000007FC0
FF8000007FC0
FF8000007FC0
FF8000007FC0
FF8000007FC0
FF8000007FC0
ENDCHAR
STARTCHAR I
ENCODING 73
SWIDTH 261 0
DWIDTH 20 0
BBX 9 53 5 0
BITMAP
FF80
FF80
FF80
FF80
FF80
FF80
FF80
FF80
FF80
FF80
FF80
FF80
FF80
FF80
FF80
FF80
FF80
FF80
FF80
FF80
FF80
FF80
FF80
FF80
FF80
FF80
FF80
FF80
FF80
FF80
FF80
FF80
FF80
FF80
FF80
FF80
FF80
FF80
FF80
FF80
FF80
FF80
FF80
FF80
FF80
FF80
FF80
FF80
FF80
FF80
FF80
FF80
FF80
ENDCHAR
STARTCHAR J
ENCODING 74
SWIDTH 529 0
DWIDTH 40 0
BBX 32 54 2 -1
BITMAP
000001FF
000001FF
000001FF
000001FF
000001FF
000001FF
000001FF
000001FF
000001FF
000001FF
000001FF
000001FF
000001FF
000001FF
000001FF
000001FF
000001FF
000001FF
000001FF
000001FF
000001FF
000001FF
000001FF
000001FF
000001FF
000001FF
000001FF
000001FF
000001FF
000001FF
000001FF
000001FF
000001FF
000001FF
000001FF
000001FF
000001FF
000001FF
FF8001FF
FF8001FF
FF8001FF
FFC001FF
7FC001FF
7FE003FF
7FF007FE
3FFC1FFE
3FFFFFFE
1FFFFFFC
0FFFFFF8
0FFFFFF8
03FFFFE0
01FFFFC0
007FFF00
0007F800
ENDCHAR
STARTCHAR K
ENCODING 75
SWIDTH 633 0
DWIDTH 47 0
BBX 41 53 5 0
BITMAP
FF800007FF00
FF80000FFE00
FF80001FFC00
FF80003FFC00
FF80007FF800
FF80007FF000
FF8000FFE000
FF8001FFC000
FF8003FF8000
FF8007FF0000
FF800FFE0000
FF801FFC0000
FF803FF80000
FF807FF00000
FF80FFE00000
FF81FFC00000
FF83FF800000
FF83FF000000
FF87FF000000
FF8FFE000000
FF9FFC000000
FFBFF8000000
FFFFFC000000
FFFFFC000000
FFFFFE000000
FFFFFE000000
FFFFFF000000
FFFFFF800000
FFFDFF800000
FFF9FFC00000
FFF0FFE00000
FFF07FE00000
FFE07FF00000
FFC03FF80000
FF803FF80000
FF801FFC0000
FF800FFC0000
FF800FFE0000
FF8007FF0000
FF8007FF0000
FF8003FF8000
FF8001FFC000
FF8001FFC000
FF8000FFE000
FF80007FE000
FF80007FF000
FF80003FF800
FF80003FF800
FF80001FFC00
FF80000FFE00
FF80000FFE00
FF800007FF00
FF800007FF80
ENDCHAR
STARTCHAR L
ENCODING 76
SWIDTH 549 0
DWIDTH 41 0
BBX 33 53 5 0
BITMAP
FF80000000
FF80000000
FF80000000
FF80000000
FF80000000
FF80000000
FF80000000
FF80000000
FF80000000
FF80000000
FF80000000
FF80000000
FF80000000
FF80000000
FF80000000
FF80000000
FF80000000
FF80000000
FF80000000
FF80000000
FF80000000
FF80000000
FF80000000
FF80000000
FF80000000
FF80000000
FF80000000
FF80000000
FF80000000
FF80000000
FF80000000
FF80000000
FF80000000
FF80000000
FF80000000
FF80000000
FF80000000
FF80000000
FF80000000
FF80000000
FF80000000
FF80000000
FF80000000
FF80000000
FF80000000
FF80000000
FFFFFFFF80
FFFFFFFF80
FFFFFFFF80
FFFFFFFF80
FFFFFFFF80
FFFFFFFF80
FFFFFFFF80
ENDCHAR
STARTCHAR M
ENCODING 77
SWIDTH 873 0
DWIDTH 65 0
BBX 55 53 5 0
BITMAP
FFE00000000FFE
FFE00000000FFE
FFF00000001FFE
FFF00000001FFE
FFF80000003FFE
FFF80000003FFE
FFFC0000007FFE
FFFC0000007FFE
FFFE000000FFFE
FFFE000000FFFE
FFFF000001FFFE
FFFF000001FFFE
FFFF800001FFFE
FFFF800003FFFE
FFFFC00003FFFE
FFFFC00007FFFE
FFBFE00007FFFE
FFBFE0000FFBFE
FF9FF0000FFBFE
FF9FF0001FF3FE
FF8FF8001FF3FE
FF8FF8003FE3FE
FF87FC003FE3FE
FF87FC007FC3FE
FF83FE007FC3FE
FF83FE00FF83FE
FF81FF00FF83FE
FF81FF01FF03FE
FF80FF81FF03FE
FF80FF83FE03FE
FF807FC3FE03FE
FF807FC7FC03FE
FF803FE7FC03FE
FF803FEFF803FE
FF801FFFF803FE
FF801FFFF003FE
FF800FFFF003FE
FF800FFFE003FE
FF8007FFE003FE
FF8007FFC003FE
FF8003FFC003FE
FF8003FF8003FE
FF8001FF8003FE
FF8001FF0003FE
FF8000FF0003FE
FF8000FE0003FE
FF8000000003FE
FF8000000003FE
FF8000000003FE
FF8000000003FE
FF8000000003FE
FF8000000003FE
FF8000000003FE
ENDCHAR
STARTCHAR N
ENCODING 78
SWIDTH 718 0
DWIDTH 54 0
BBX 44 53 5 0
BITMAP
FF8000001FF0
FFC000001FF0
FFE000001FF0
FFE000001FF0
FFF000001FF0
FFF800001FF0
FFF800001FF0
FFFC00001FF0
FFFE00001FF0
FFFE00001FF0
FFFF00001FF0
FFFF80001FF0
FFFF80001FF0
FFFFC0001FF0
FFFFE0001FF0
FFBFE0001FF0
FFBFF0001FF0
FF9FF8001FF0
FF8FF8001FF0
FF8FFC001FF0
FF87FE001FF0
FF83FE001FF0
FF83FF001FF0
FF81FF801FF0
FF80FF801FF0
FF80FFC01FF0
FF807FE01FF0
FF803FE01FF0
FF803FF01FF0
FF801FF81FF0
FF800FF81FF0
FF800FFC1FF0
FF8007FE1FF0
FF8003FE1FF0
FF8003FF1FF0
FF8001FF9FF0
FF8000FF9FF0
FF8000FFDFF0
FF80007FFFF0
FF80003FFFF0
FF80003FFFF0
FF80001FFFF0
FF80000FFFF0
FF80000FFFF0
FF800007FFF0
FF800003FFF0
FF800003FFF0
FF800001FFF0
FF800000FFF0
FF800000FFF0
FF8000007FF0
FF8000003FF0
FF8000003FF0
ENDCHAR
STARTCHAR O
ENCODING 79
SWIDTH 781 0
DWIDTH 59 0
BBX 52 54 3 -1
BITMAP
00001FFFC00000
0000FFFFF80000
0003FFFFFE0000
000FFFFFFF8000
001FFFFFFFC000
007FFFFFFFE000
00FFFFFFFFF000
01FFFFFFFFF800
03FFF800FFFC00
03FFC0003FFE00
07FF80000FFF00
0FFE000007FF00
0FFE000003FF80
1FFC000001FF80
1FF8000000FFC0
3FF0000000FFC0
3FF00000007FE0
3FE00000007FE0
7FE00000003FE0
7FE00000003FE0
7FC00000003FF0
7FC00000003FF0
7FC00000001FF0
7FC00000001FF0
FFC00000001FF0
FFC00000001FF0
FFC00000001FF0
FFC00000001FF0
FFC00000001FF0
7FC00000001FF0
7FC00000001FF0
7FC00000003FF0
7FC00000003FF0
7FC00000003FF0
7FE00000003FE0
3FE00000007FE0
3FF00000007FE0
3FF00000007FC0
1FF8000000FFC0
1FF8000001FFC0
1FFC000001FF80
0FFE000003FF80
07FF000007FF00
07FFC0001FFE00
03FFF0007FFE00
01FFFE03FFFC00
00FFFFFFFFF800
007FFFFFFFF000
003FFFFFFFE000
001FFFFFFF8000
0007FFFFFF0000
0001FFFFFC0000
00007FFFE00000
000007FE000000
ENDCHAR
STARTCHAR P
ENCODING 80
SWIDTH 604 0
DWIDTH 45 0
BBX 38 53 5 0
BITMAP
FFFFF00000
FFFFFFE000
FFFFFFF800
FFFFFFFE00
FFFFFFFF80
FFFFFFFFC0
FFFFFFFFE0
FFFFFFFFE0
FF8001FFF0
FF80007FF0
FF80001FF8
FF80001FF8
FF80000FF8
FF80000FFC
FF80000FFC
FF800007FC
FF800007FC
FF800007FC
FF800007FC
FF80000FFC
FF80000FF8
FF80001FF8
FF80001FF8
FF80003FF0
FF8000FFF0
FFFFFFFFE0
FFFFFFFFE0
FFFFFFFFC0
FFFFFFFF80
FFFFFFFE00
FFFFFFFC00
FFFFFFE000
FFFFFE0000
FF80000000
FF80000000
FF80000000
FF80000000
FF80000000
FF80000000
FF80000000
FF80000000
FF80000000
FF80000000
FF80000000
FF80000000
FF80000000
FF80000000
FF80000000
FF80000000
FF80000000
FF80000000
FF80000000
FF80000000
ENDCHAR
STARTCHAR Q
ENCODING 81
SWIDTH 781 0
DWIDTH 59 0
BBX 52 61 3 -8
BITMAP
00001FFFC00000
0000FFFFF80000
0003FFFFFE0000
000FFFFFFF8000
001FFFFFFFC000
007FFFFFFFE000
00FFFFFFFFF000
01FFFFFFFFF800
03FFF800FFFC00
03FFC0003FFE00
07FF80000FFF00
0FFE000007FF00
0FFE000003FF80
1FFC000001FF80
1FF8000000FFC0
3FF0000000FFC0
3FF00000007FE0
3FE00000007FE0
7FE00000003FE0
7FE00000003FE0
7FC00000003FF0
7FC00000003FF0
7FC00000001FF0
7FC00000001FF0
FFC00000001FF0
FFC00000001FF0
FFC00000001FF0
FFC00000001FF0
FFC00000001FF0
7FC00000001FF0
7FC00000001FF0
7FC00800003FF0
7FC007FE003FF0
7FC003FF003FF0
7FE003FF803FE0
3FE001FF807FE0
3FF000FFC07FE0
3FF000FFE07FC0
1FF8007FE0FFC0
1FF8007FF1FFC0
1FFC003FF9FF80
0FFE001FFBFF80
07FF001FFFFF00
07FFC00FFFFE00
03FFF007FFFE00
01FFFE07FFFC00
00FFFFFFFFF800
007FFFFFFFF000
003FFFFFFFE000
001FFFFFFFC000
0007FFFFFFE000
0001FFFFFFF000
00007FFFFFF000
000007FE3FF800
000000001FFC00
000000000FFC00
000000000FFE00
0000000007FF00
0000000003FF00
0000000003FF80
0000000001FFC0
ENDCHAR
STARTCHAR R
ENCODING 82
SWIDTH 620 0
DWIDTH 47 0
BBX 38 53 5 0
BITMAP
FFFFF00000
FFFFFFE000
FFFFFFF800
FFFFFFFE00
FFFFFFFF00
FFFFFFFF80
FFFFFFFFC0
FFFFFFFFE0
FF8001FFF0
FF80007FF0
FF80003FF8
FF80001FF8
FF80001FF8
FF80000FF8
FF80000FF8
FF80000FFC
FF80000FFC
FF80000FFC
FF80000FF8
FF80000FF8
FF80000FF8
FF80001FF8
FF80003FF0
FF80007FF0
FF8000FFE0
FFFFFFFFE0
FFFFFFFFC0
FFFFFFFF80
FFFFFFFF00
FFFFFFFC00
FFFFFFF000
FFFFFFE000
FF803FF000
FF803FF000
FF801FF800
FF801FF800
FF800FFC00
FF800FFC00
FF8007FE00
FF8007FE00
FF8003FF00
FF8003FF00
FF8001FF80
FF8001FF80
FF8000FFC0
FF8000FFC0
FF80007FE0
FF80007FE0
FF80003FF0
FF80003FF0
FF80001FF8
FF80001FF8
FF80001FFC
ENDCHAR
STARTCHAR S
ENCODING 83
SWIDTH 597 0
DWIDTH 45 0
BBX 38 54 3 -1
BITMAP
0007FFC000
003FFFF000
00FFFFFC00
01FFFFFF00
03FFFFFF80
07FFFFFFC0
0FFFFFFFC0
1FFF03FFE0
1FFC00FFF0
3FF8007FF0
3FF0003FF0
3FF0003FF8
3FE0001FF8
3FE0001FF8
3FE0001FF8
3FE0000000
3FF0000000
3FF0000000
3FF8000000
1FFE000000
1FFF800000
0FFFE00000
0FFFFC0000
07FFFF8000
03FFFFF000
00FFFFFC00
007FFFFF00
001FFFFF80
0003FFFFC0
00007FFFE0
00000FFFF0
000001FFF8
0000007FF8
0000003FFC
0000001FFC
0000000FFC
0000000FFC
FFC00007FC
FFC00007FC
7FC00007FC
7FC00007FC
7FE0000FFC
7FF0000FFC
3FF0001FFC
3FFC003FF8
1FFE007FF8
1FFFFFFFF0
0FFFFFFFE0
07FFFFFFC0
03FFFFFF80
01FFFFFF00
007FFFFE00
001FFFF000
0001FF8000
ENDCHAR
STARTCHAR T
ENCODING 84
SWIDTH 587 0
DWIDTH 44 0
BBX 40 53 2 0
BITMAP
FFFFFFFFFF
FFFFFFFFFF
FFFFFFFFFF
FFFFFFFFFF
FFFFFFFFFF
FFFFFFFFFF
FFFFFFFFFF
FFFFFFFFFF
0000FF0000
0000FF0000
0000FF0000
0000FF0000
0000FF0000
0000FF0000
0000FF0000
0000FF0000
0000FF0000
0000FF0000
0000FF0000
0000FF0000
0000FF0000
0000FF0000
0000FF0000
0000FF0000
0000FF0000
0000FF0000
0000FF0000
0000FF0000
0000FF0000
0000FF0000
0000FF0000
0000FF0000
0000FF0000
0000FF0000
0000FF0000
0000FF0000
0000FF0000
0000FF0000
0000FF0000
0000FF0000
0000FF0000
0000FF0000
0000FF0000
0000FF0000
0000FF0000
0000FF0000
0000FF0000
0000FF0000
0000FF0000
0000FF0000
0000FF0000
0000FF0000
0000FF0000
ENDCHAR
STARTCHAR U
ENCODING 85
SWIDTH 676 0
DWIDTH 51 0
BBX 41 54 5 -1
BITMAP
FF800000FF80
FF800000FF80
FF800000FF80
FF800000FF80
FF800000FF80
FF800000FF80
FF800000FF80
FF800000FF80
FF800000FF80
FF800000FF80
FF800000FF80
FF800000FF80
FF800000FF80
FF800000FF80
FF800000FF80
FF800000FF80
FF800000FF80
FF800000FF80
FF800000FF80
FF800000FF80
FF800000FF80
FF800000FF80
FF800000FF80
FF800000FF80
FF800000FF80
FF800000FF80
FF800000FF80
FF800000FF80
FF800000FF80
FF800000FF80
FF800000FF80
FF800000FF80
FF800000FF80
FF800000FF80
FF800000FF80
FF800000FF80
FF800000FF80
FF800001FF80
FFC00001FF00
FFC00001FF00
7FC00003FF00
7FE00003FF00
7FF00007FE00
3FF8000FFE00
3FFE003FFC00
1FFFC3FFFC00
0FFFFFFFF800
0FFFFFFFF000
07FFFFFFE000
03FFFFFFC000
00FFFFFF8000
003FFFFE0000
000FFFF80000
0001FF800000
ENDCHAR
STARTCHAR V
ENCODING 86
SWIDTH 695 0
DWIDTH 52 0
BBX 50 53 1 0
BITMAP
FFC0000000FFC0
7FC0000000FF80
7FE0000000FF80
7FE0000001FF80
3FE0000001FF00
3FF0000001FF00
3FF0000003FF00
1FF0000003FE00
1FF8000007FE00
0FF8000007FE00
0FF8000007FC00
0FFC00000FFC00
07FC00000FF800
07FC00000FF800
07FE00001FF800
03FE00001FF000
03FF00001FF000
01FF00003FF000
01FF00003FE000
01FF80003FE000
00FF80007FC000
00FF80007FC000
00FFC0007FC000
007FC000FF8000
007FC000FF8000
007FE001FF8000
003FE001FF0000
003FE001FF0000
001FF003FF0000
001FF003FE0000
001FF003FE0000
000FF807FC0000
000FF807FC0000
000FF807FC0000
0007FC0FF80000
0007FC0FF80000
0007FE0FF80000
0003FE1FF00000
0003FE1FF00000
0001FF1FE00000
0001FF3FE00000
0001FF3FE00000
0000FFFFC00000
0000FFFFC00000
0000FFFFC00000
00007FFF800000
00007FFF800000
00003FFF800000
00003FFF000000
00003FFF000000
00001FFE000000
00001FFE000000
00001FFE000000
ENDCHAR
STARTCHAR W
ENCODING 87
SWIDTH 1003 0
DWIDTH 75 0
BBX 71 53 2 0
BITMAP
FFC00001FF800003FE
FFC00003FF800007FE
FFC00003FF800007FE
7FC00003FFC00007FE
7FC00003FFC00007FC
7FE00007FFC0000FFC
3FE00007FFC0000FFC
3FE00007FFE0000FF8
3FE00007FFE0000FF8
3FF0000FFFE0000FF8
1FF0000FFFE0001FF8
1FF0000FFFF0001FF0
1FF0000FFFF0001FF0
1FF8001FFFF0001FF0
0FF8001FEFF0003FF0
0FF8001FEFF8003FE0
0FF8003FEFF8003FE0
0FFC003FC7F8003FE0
07FC003FC7F8007FC0
07FC003FC7FC007FC0
07FC007FC3FC007FC0
03FC007F83FC007FC0
03FE007F83FC007F80
03FE007F83FE00FF80
03FE00FF01FE00FF80
01FE00FF01FE00FF80
01FF00FF01FF00FF00
01FF01FF01FF01FF00
01FF01FE00FF01FF00
00FF01FE00FF01FE00
00FF81FE00FF81FE00
00FF83FE007F83FE00
00FF83FC007F83FE00
007F83FC007F83FC00
007F83FC007FC3FC00
007FC7F8003FC7FC00
003FC7F8003FC7FC00
003FC7F8003FC7F800
003FC7F8003FE7F800
003FEFF0001FE7F800
001FEFF0001FEFF000
001FEFF0001FEFF000
001FFFE0000FFFF000
001FFFE0000FFFF000
000FFFE0000FFFE000
000FFFE0000FFFE000
000FFFC00007FFE000
000FFFC00007FFE000
0007FFC00007FFC000
0007FF800007FFC000
0007FF800003FFC000
0007FF800003FF8000
0003FF800003FF8000
ENDCHAR
STARTCHAR X
ENCODING 88
SWIDTH 650 0
DWIDTH 49 0
BBX 44 53 2 0
BITMAP
FFE000003FF0
7FE000007FE0
3FF000007FE0
3FF80000FFC0
1FF80001FFC0
0FFC0001FF80
0FFE0003FF00
07FE0003FF00
03FF0007FE00
03FF800FFC00
01FF800FFC00
01FFC01FF800
00FFC01FF800
007FE03FF000
007FF03FE000
003FF07FE000
001FF8FFC000
001FFCFF8000
000FFDFF8000
0007FFFF0000
0007FFFF0000
0003FFFE0000
0003FFFC0000
0001FFFC0000
0000FFF80000
0000FFF00000
00007FF00000
0000FFF00000
0000FFF80000
0001FFF80000
0003FFFC0000
0003FFFE0000
0007FFFE0000
0007FFFF0000
000FFFFF8000
001FF9FF8000
001FF1FFC000
003FF0FFC000
003FE07FE000
007FE07FF000
00FFC03FF000
00FF801FF800
01FF801FFC00
03FF000FFC00
03FF0007FE00
07FE0007FF00
07FE0003FF00
0FFC0003FF80
1FF80001FF80
1FF80000FFC0
3FF00000FFE0
3FF000007FE0
7FE000003FF0
ENDCHAR
STARTCHAR Y
ENCODING 89
SWIDTH 618 0
DWIDTH 46 0
BBX 44 53 1 0
BITMAP
FFC000003FF0
7FE000003FF0
7FE000007FE0
3FF000007FE0
3FF00000FFC0
1FF80000FFC0
1FF80001FF80
0FFC0001FF80
0FFC0003FF00
07FE0003FF00
07FE0007FE00
03FF0007FC00
03FF000FFC00
01FF800FF800
01FF801FF800
00FFC01FF000
007FC03FF000
007FE03FE000
003FE07FE000
003FF07FC000
001FF0FFC000
001FF0FF8000
000FF8FF8000
000FF9FF0000
0007FDFF0000
0007FFFE0000
0003FFFE0000
0003FFFC0000
0001FFFC0000
0001FFF80000
0000FFF80000
0000FFF00000
00007FF00000
00007FE00000
00003FE00000
00003FE00000
00003FE00000
00003FE00000
00003FE00000
00003FE00000
00003FE00000
00003FE00000
00003FE00000
00003FE00000
00003FE00000
00003FE00000
00003FE00000
00003FE00000
00003FE00000
00003FE00000
00003FE00000
00003FE00000
00003FE00000
ENDCHAR
STARTCHAR Z
ENCODING 90
SWIDTH 567 0
DWIDTH 43 0
BBX 35 53 4 0
BITMAP
FFFFFFFFE0
FFFFFFFFE0
FFFFFFFFE0
FFFFFFFFE0
FFFFFFFFE0
FFFFFFFFE0
FFFFFFFFE0
FFFFFFFFE0
000000FFC0
000001FF80
000001FF80
000003FF00
000007FE00
000007FE00
00000FFC00
00000FF800
00001FF800
00003FF000
00003FF000
00007FE000
0000FFC000
0000FFC000
0001FF8000
0003FF0000
0003FF0000
0007FE0000
000FFC0000
000FFC0000
001FF80000
003FF00000
003FF00000
007FE00000
00FFC00000
00FFC00000
01FF800000
03FF000000
03FF000000
07FE000000
07FC000000
0FFC000000
1FF8000000
1FF0000000
3FF0000000
7FE0000000
7FC0000000
FFFFFFFFE0
FFFFFFFFE0
FFFFFFFFE0
FFFFFFFFE0
FFFFFFFFE0
FFFFFFFFE0
FFFFFFFFE0
FFFFFFFFE0
ENDCHAR
STARTCHAR bracketleft
ENCODING 91
SWIDTH 358 0
DWIDTH 27 0
BBX 18 74 5 -13
BITMAP
FFFFC0
FFFFC0
FFFFC0
FFFFC0
FFFFC0
FFFFC0
FFFFC0
FFFFC0
FF8000
FF8000
FF8000
FF8000
FF8000
FF8000
FF8000
FF8000
FF8000
FF8000
FF8000
FF8000
FF8000
FF8000
FF8000
FF8000
FF8000
FF8000
FF8000
FF8000
FF8000
FF8000
FF8000
FF8000
FF8000
FF8000
FF8000
FF8000
FF8000
FF8000
FF8000
FF8000
FF8000
FF8000
FF8000
FF8000
FF8000
FF8000
FF8000
FF8000
FF8000
FF8000
FF8000
FF8000
FF8000
FF8000
FF8000
FF8000
FF8000
FF8000
FF8000
FF8000
FF8000
FF8000
FF8000
FF8000
FF8000
FF8000
FFFFC0
FFFFC0
FFFFC0
FFFFC0
FFFFC0
FFFFC0
FFFFC0
FFFFC0
ENDCHAR
STARTCHAR backslash
ENCODING 92
SWIDTH 417 0
DWIDTH 31 0
BBX 27 66 2 -8
BITMAP
FF800000
FF800000
7F800000
7FC00000
7FC00000
7FC00000
3FC00000
3FE00000
3FE00000
1FE00000
1FF00000
1FF00000
1FF00000
0FF00000
0FF80000
0FF80000
07F80000
07FC0000
07FC0000
07FC0000
03FC0000
03FE0000
03FE0000
01FE0000
01FF0000
01FF0000
01FF0000
00FF0000
00FF8000
00FF8000
00FF8000
007FC000
007FC000
007FC000
003FC000
003FE000
003FE000
003FE000
001FF000
001FF000
001FF000
000FF000
000FF800
000FF800
000FF800
0007FC00
0007FC00
0007FC00
0003FC00
0003FE00
0003FE00
0003FE00
0001FF00
0001FF00
0001FF00
0000FF00
0000FF80
0000FF80
0000FF80
00007FC0
00007FC0
00007FC0
00003FC0
00003FE0
00003FE0
00003FE0
ENDCHAR
STARTCHAR bracketright
ENCODING 93
SWIDTH 358 0
DWIDTH 27 0
BBX 18 74 4 -13
BITMAP
FFFFC0
FFFFC0
FFFFC0
FFFFC0
FFFFC0
FFFFC0
FFFFC0
FFFFC0
007FC0
007FC0
007FC0
007FC0
007FC0
007FC0
007FC0
007FC0
007FC0
007FC0
007FC0
007FC0
007FC0
007FC0
007FC0
007FC0
007FC0
007FC0
007FC0
007FC0
007FC0
007FC0
007FC0
007FC0
007FC0
007FC0
007FC0
007FC0
007FC0
007FC0
007FC0
007FC0
007FC0
007FC0
007FC0
007FC0
007FC0
007FC0
007FC0
007FC0
007FC0
007FC0
007FC0
007FC0
007FC0
007FC0
007FC0
007FC0
007FC0
007FC0
007FC0
007FC0
007FC0
007FC0
007FC0
007FC0
007FC0
007FC0
FFFFC0
FFFFC0
FFFFC0
FFFFC0
FFFFC0
FFFFC0
FFFFC0
FFFFC0
ENDCHAR
STARTCHAR asciicircum
ENCODING 94
SWIDTH 661 0
DWIDTH 50 0
BBX 44 38 3 15
BITMAP
00003FC00000
00007FE00000
00007FE00000
0000FFF00000
0000FFF00000
0001FFF00000
0001FFF80000
0003FFF80000
0003FFFC0000
0007FFFC0000
0007FFFE0000
000FFBFE0000
000FF9FF0000
001FF9FF0000
001FF0FF8000
003FF0FF8000
003FE07FC000
007FE07FC000
007FC03FE000
00FFC03FE000
00FF803FF000
00FF801FF000
01FF001FF800
01FF000FF800
03FE000FFC00
03FE0007FC00
07FC0007FC00
07FC0003FE00
0FF80003FE00
0FF80001FF00
1FF00001FF00
1FF00000FF80
3FE00000FF80
3FE000007FC0
7FC000007FC0
7FC000003FE0
FF8000003FE0
FF8000001FF0
ENDCHAR
STARTCHAR underscore
ENCODING 95
SWIDTH 706 0
DWIDTH 53 0
BBX 41 8 6 -11
BITMAP
FFFFFFFFFF80
FFFFFFFFFF80
FFFFFFFFFF80
FFFFFFFFFF80
FFFFFFFFFF80
FFFFFFFFFF80
FFFFFFFFFF80
FFFFFFFFFF80
ENDCHAR
STARTCHAR grave
ENCODING 96
SWIDTH 228 0
DWIDTH 17 0
BBX 17 15 0 41
BITMAP
600000
700000
7C0000
FF0000
FFC000
FFE000
FFF800
3FFE00
0FFF00
03FF80
00FF80
003F80
000F80
000700
000100
ENDCHAR
STARTCHAR a
ENCODING 97
SWIDTH 574 0
DWIDTH 43 0
BBX 34 40 4 -1
BITMAP
0000F00000
001FFF8000
00FFFFE000
01FFFFF800
07FFFFFC00
0FFFFFFE00
0FFFFFFF00
1FFFFFFF80
3FFC03FF80
3FF001FF80
7FE000FFC0
7FC0007FC0
7FC0007FC0
0000007FC0
0000007FC0
0000007FC0
0000007FC0
007FFFFFC0
03FFFFFFC0
0FFFFFFFC0
1FFFFFFFC0
3FFFFFFFC0
7FFFFFFFC0
7FF0007FC0
FFE0007FC0
FFC0007FC0
FF8000FFC0
FF8000FFC0
FF8001FFC0
FFC001FFC0
FFC003FFC0
FFE00FFFC0
7FF83FFFC0
7FFFFFFFC0
3FFFFFBFC0
3FFFFF3FC0
1FFFFE3FC0
0FFFFC1FC0
03FFF01FC0
007FC00000
ENDCHAR
STARTCHAR b
ENCODING 98
SWIDTH 646 0
DWIDTH 48 0
BBX 40 55 5 -1
BITMAP
FF80000000
FF80000000
FF80000000
FF80000000
FF80000000
FF80000000
FF80000000
FF80000000
FF80000000
FF80000000
FF80000000
FF80000000
FF80000000
FF80000000
FF80000000
FF800F0000
FF81FFF000
FF87FFFC00
FF8FFFFF00
FF9FFFFF80
FFBFFFFFC0
FFFFFFFFE0
FFFFFFFFF0
FFFF83FFF8
FFFC007FF8
FFF8001FFC
FFF0000FFC
FFE0000FFE
FFC00007FE
FFC00003FE
FFC00003FE
FF800003FF
FF800003FF
FF800001FF
FF800001FF
FF800001FF
FF800001FF
FF800003FF
FF800003FF
FF800003FE
FFC00003FE
FFC00007FE
FFE00007FE
FFF0000FFC
FFF8001FFC
FFFC007FF8
FFFF01FFF8
FFFFFFFFF0
FFFFFFFFE0
FFBFFFFFC0
FFBFFFFF80
FF9FFFFF00
FF07FFFE00
FF01FFF800
00003F8000
ENDCHAR
STARTCHAR c
ENCODING 99
SWIDTH 596 0
DWIDTH 45 0
BBX 37 40 4 -1
BITMAP
0000FC0000
000FFFC000
003FFFF800
00FFFFFC00
01FFFFFE00
07FFFFFF80
07FFFFFF80
0FFFFFFFC0
1FFF03FFE0
3FFC00FFE0
3FF0007FF0
7FF0003FF0
7FE0001FF8
7FC0001FF8
FFC0000000
FF80000000
FF80000000
FF80000000
FF80000000
FF80000000
FF80000000
FF80000000
FF80000000
FF80000000
FF80000000
FFC0000000
7FC0001FF8
7FE0001FF8
7FE0003FF0
3FF0003FF0
3FF8007FF0
1FFE01FFE0
1FFFFFFFC0
0FFFFFFFC0
07FFFFFF80
03FFFFFF00
00FFFFFC00
007FFFF800
001FFFE000
0001FE0000
ENDCHAR
STARTCHAR d
ENCODING 100
SWIDTH 646 0
DWIDTH 48 0
BBX 40 55 4 -1
BITMAP
00000003FF
00000003FF
00000003FF
00000003FF
00000003FF
00000003FF
00000003FF
00000003FF
00000003FF
00000003FF
00000003FF
00000003FF
00000003FF
00000003FF
00000003FF
0001F003FF
001FFF83FF
007FFFC3FF
00FFFFF3FF
03FFFFFBFF
07FFFFFFFF
0FFFFFFFFF
0FFFFFFFFF
1FFF83FFFF
3FFC007FFF
3FF8001FFF
7FF0000FFF
7FE0000FFF
7FE00007FF
FFC00007FF
FFC00003FF
FF800003FF
FF800003FF
FF800003FF
FF800001FF
FF800001FF
FF800003FF
FF800003FF
FF800003FF
FFC00003FF
FFC00003FF
7FC00007FF
7FE00007FF
7FF0000FFF
3FF8001FFF
3FFC007FFF
1FFF01FFFF
1FFFFFFFFF
0FFFFFFFFF
07FFFFFDFF
03FFFFF9FF
01FFFFF1FF
007FFFC1FF
001FFF81FF
0003FC0000
ENDCHAR
STARTCHAR e
ENCODING 101
SWIDTH 592 0
DWIDTH 44 0
BBX 37 40 4 -1
BITMAP
0000FC0000
000FFFC000
007FFFF000
00FFFFFC00
03FFFFFE00
07FFFFFF00
0FFFFFFF80
0FFFFFFFC0
1FFE01FFC0
3FF8007FE0
3FF0003FE0
7FE0001FF0
7FC0001FF0
7FC0001FF0
FF80000FF8
FF80000FF8
FFFFFFFFF8
FFFFFFFFF8
FFFFFFFFF8
FFFFFFFFF8
FFFFFFFFF8
FFFFFFFFF8
FF80000000
FF80000000
FF80000000
FF80000000
FFC0000000
7FC0000000
7FE0003FF0
3FE0003FE0
3FF8007FE0
1FFC01FFC0
1FFFFFFFC0
0FFFFFFF80
07FFFFFF00
03FFFFFE00
01FFFFFC00
007FFFF000
001FFFC000
0001FE0000
ENDCHAR
STARTCHAR f
ENCODING 102
SWIDTH 362 0
DWIDTH 27 0
BBX 23 54 1 0
BITMAP
0003FE
001FFE
007FFE
00FFFE
00FFFE
01FFFE
01FFFE
03FFFE
03FF00
03FE00
03FE00
03FE00
03FE00
03FE00
03FE00
03FE00
FFFFFE
FFFFFE
FFFFFE
FFFFFE
FFFFFE
FFFFFE
FFFFFE
FFFFFE
03FE00
03FE00
03FE00
03FE00
03FE00
03FE00
03FE00
03FE00
03FE00
03FE00
03FE00
03FE00
03FE00
03FE00
03FE00
03FE00
03FE00
03FE00
03FE00
03FE00
03FE00
03FE00
03FE00
03FE00
03FE00
03FE00
03FE00
03FE00
03FE00
03FE00
ENDCHAR
STARTCHAR g
ENCODING 103
SWIDTH 585 0
DWIDTH 44 0
BBX 38 56 3 -17
BITMAP
0000F00000
001FFFFFFC
007FFFFFFC
00FFFFFFFC
01FFFFFFFC
03FFFFFFFC
07FFFFFFFC
0FFFBFFE00
0FFC03FF00
1FF001FF00
1FE000FF80
1FE0007F80
1FE0007F80
1FE0007F80
1FE0007F80
1FE0007F80
1FE0007F80
1FE000FF80
1FF000FF00
0FF803FF00
0FFF9FFE00
07FFFFFE00
03FFFFFC00
01FFFFF800
01FFFFF000
03FFFFE000
07FFFF8000
0FF0F00000
1FE0000000
3FC0000000
7FE0000000
7FFE000000
7FFFFF0000
3FFFFFF000
1FFFFFFC00
07FFFFFE00
0FFFFFFF80
1FFFFFFF80
3FE01FFFC0
3FC000FFC0
7F80007FE0
7F80003FE0
FF80003FE0
FF00001FE0
FF00003FE0
FF80003FE0
FF80003FE0
7FC0007FC0
7FF001FFC0
7FFFFFFF80
3FFFFFFF80
1FFFFFFF00
0FFFFFFE00
07FFFFF800
01FFFFF000
003FFF8000
ENDCHAR
STARTCHAR h
ENCODING 104
SWIDTH 605 0
DWIDTH 45 0
BBX 36 54 5 0
BITMAP
FF80000000
FF80000000
FF80000000
FF80000000
FF80000000
FF80000000
FF80000000
FF80000000
FF80000000
FF80000000
FF80000000
FF80000000
FF80000000
FF80000000
FF80000000
FF800E0000
FF81FFF000
FF83FFFC00
FF8FFFFE00
FF9FFFFF00
FFBFFFFF80
FFFFFFFF80
FFFFFFFFC0
FFFE03FFC0
FFF800FFE0
FFF0007FE0
FFE0003FE0
FFE0003FF0
FFC0003FF0
FFC0001FF0
FF80001FF0
FF80001FF0
FF80001FF0
FF80001FF0
FF80001FF0
FF80001FF0
FF80001FF0
FF80001FF0
FF80001FF0
FF80001FF0
FF80001FF0
FF80001FF0
FF80001FF0
FF80001FF0
FF80001FF0
FF80001FF0
FF80001FF0
FF80001FF0
FF80001FF0
FF80001FF0
FF80001FF0
FF80001FF0
FF80001FF0
FF80001FF0
ENDCHAR
STARTCHAR i
ENCODING 105
SWIDTH 264 0
DWIDTH 20 0
BBX 12 54 4 0
BITMAP
1F80
7FC0
7FE0
FFE0
FFF0
FFF0
FFE0
7FE0
3FC0
1F80
0000
0000
0000
0000
0000
0000
7FC0
7FC0
7FC0
7FC0
7FC0
7FC0
7FC0
7FC0
7FC0
7FC0
7FC0
7FC0
7FC0
7FC0
7FC0
7FC0
7FC0
7FC0
7FC0
7FC0
7FC0
7FC0
7FC0
7FC0
7FC0
7FC0
7FC0
7FC0
7FC0
7FC0
7FC0
7FC0
7FC0
7FC0
7FC0
7FC0
7FC0
7FC0
ENDCHAR
STARTCHAR j
ENCODING 106
SWIDTH 265 0
DWIDTH 20 0
BBX 18 71 -2 -17
BITMAP
007E00
00FF80
01FF80
01FFC0
03FFC0
03FFC0
01FFC0
01FF80
00FF00
007E00
000000
000000
000000
000000
000000
000000
00FF80
00FF80
00FF80
00FF80
00FF80
00FF80
00FF80
00FF80
00FF80
00FF80
00FF80
00FF80
00FF80
00FF80
00FF80
00FF80
00FF80
00FF80
00FF80
00FF80
00FF80
00FF80
00FF80
00FF80
00FF80
00FF80
00FF80
00FF80
00FF80
00FF80
00FF80
00FF80
00FF80
00FF80
00FF80
00FF80
00FF80
00FF80
00FF80
00FF80
00FF80
00FF80
00FF80
01FF80
01FF00
01FF00
07FF00
FFFF00
FFFF00
FFFE00
FFFC00
FFFC00
FFF000
FFC000
F80000
ENDCHAR
STARTCHAR k
ENCODING 107
SWIDTH 556 0
DWIDTH 42 0
BBX 36 54 5 0
BITMAP
FF80000000
FF80000000
FF80000000
FF80000000
FF80000000
FF80000000
FF80000000
FF80000000
FF80000000
FF80000000
FF80000000
FF80000000
FF80000000
FF80000000
FF80000000
FF80000000
FF8003FF80
FF8003FF00
FF8007FE00
FF800FFC00
FF801FFC00
FF803FF800
FF807FF000
FF80FFE000
FF81FFC000
FF81FF8000
FF83FF0000
FF87FE0000
FF8FFC0000
FF9FF80000
FFBFF80000
FFFFF00000
FFFFE00000
FFFFC00000
FFFFE00000
FFFFF00000
FFBFF00000
FF9FF80000
FF8FFC0000
FF87FE0000
FF87FF0000
FF83FF8000
FF81FFC000
FF80FFC000
FF807FE000
FF803FF000
FF803FF800
FF801FFC00
FF800FFE00
FF8007FF00
FF8003FF80
FF8003FF80
FF8001FFC0
FF8000FFF0
ENDCHAR
STARTCHAR l
ENCODING 108
SWIDTH 254 0
DWIDTH 19 0
BBX 9 54 5 0
BITMAP
FF80
FF80
FF80
FF80
FF80
FF80
FF80
FF80
FF80
FF80
FF80
FF80
FF80
FF80
FF80
FF80
FF80
FF80
FF80
FF80
FF80
FF80
FF80
FF80
FF80
FF80
FF80
FF80
FF80
FF80
FF80
FF80
FF80
FF80
FF80
FF80
FF80
FF80
FF80
FF80
FF80
FF80
FF80
FF80
FF80
FF80
FF80
FF80
FF80
FF80
FF80
FF80
FF80
FF80
ENDCHAR
STARTCHAR m
ENCODING 109
SWIDTH 926 0
DWIDTH 69 0
BBX 60 39 5 0
BITMAP
00003E00001E0000
FF03FFE001FFF000
FF07FFF007FFFC00
FF1FFFFC0FFFFE00
FF3FFFFE3FFFFF00
FFFFFFFE3FFFFF80
FFFFFFFF7FFFFFC0
FFFFFFFFFFFFFFC0
FFFE07FFFF03FFC0
FFF801FFFC00FFE0
FFF000FFF8007FE0
FFE000FFF0003FE0
FFC0007FF0003FF0
FFC0007FE0003FF0
FFC0007FE0001FF0
FF80007FE0001FF0
FF80007FE0001FF0
FF80003FE0001FF0
FF80003FC0001FF0
FF80003FC0001FF0
FF80003FC0001FF0
FF80003FC0001FF0
FF80003FC0001FF0
FF80003FC0001FF0
FF80003FC0001FF0
FF80003FC0001FF0
FF80003FC0001FF0
FF80003FC0001FF0
FF80003FC0001FF0
FF80003FC0001FF0
FF80003FC0001FF0
FF80003FC0001FF0
FF80003FC0001FF0
FF80003FC0001FF0
FF80003FC0001FF0
FF80003FC0001FF0
FF80003FC0001FF0
FF80003FC0001FF0
FF80003FC0001FF0
ENDCHAR
STARTCHAR n
ENCODING 110
SWIDTH 604 0
DWIDTH 45 0
BBX 36 39 5 0
BITMAP
00001E0000
FF01FFF000
FF07FFF800
FF0FFFFE00
FF1FFFFF00
FF3FFFFF80
FFFFFFFF80
FFFFFFFFC0
FFFE03FFC0
FFF800FFE0
FFF0007FE0
FFE0007FE0
FFC0003FE0
FFC0003FF0
FFC0003FF0
FF80001FF0
FF80001FF0
FF80001FF0
FF80001FF0
FF80001FF0
FF80001FF0
FF80001FF0
FF80001FF0
FF80001FF0
FF80001FF0
FF80001FF0
FF80001FF0
FF80001FF0
FF80001FF0
FF80001FF0
FF80001FF0
FF80001FF0
FF80001FF0
FF80001FF0
FF80001FF0
FF80001FF0
FF80001FF0
FF80001FF0
FF80001FF0
ENDCHAR
STARTCHAR o
ENCODING 111
SWIDTH 605 0
DWIDTH 45 0
BBX 38 40 4 -1
BITMAP
0000FC0000
000FFFC000
003FFFF000
00FFFFFC00
01FFFFFE00
07FFFFFF00
07FFFFFF80
0FFFFFFFC0
1FFF07FFC0
3FFC00FFE0
3FF0007FF0
7FE0003FF0
7FE0001FF0
7FC0001FF8
FFC0000FF8
FF80000FF8
FF80000FF8
FF80000FF8
FF80000FFC
FF80000FFC
FF80000FFC
FF80000FFC
FF80000FFC
FF80000FF8
FF80000FF8
FFC0000FF8
7FC0001FF8
7FE0001FF0
7FE0003FF0
3FF0007FF0
3FF800FFE0
1FFE03FFE0
1FFFFFFFC0
0FFFFFFF80
07FFFFFF00
03FFFFFE00
00FFFFFC00
007FFFF000
001FFFC000
0001FE0000
ENDCHAR
STARTCHAR p
ENCODING 112
SWIDTH 646 0
DWIDTH 48 0
BBX 40 56 5 -17
BITMAP
00001F0000
FF01FFF000
FF07FFFC00
FF0FFFFF00
FF9FFFFF80
FFBFFFFFC0
FFFFFFFFE0
FFFFFFFFF0
FFFF83FFF8
FFFC007FF8
FFF8001FFC
FFF0000FFC
FFE0000FFE
FFC00007FE
FFC00003FE
FFC00003FE
FF800003FF
FF800003FF
FF800001FF
FF800001FF
FF800001FF
FF800001FF
FF800003FF
FF800003FF
FF800003FE
FFC00003FE
FFC00007FE
FFE00007FE
FFF0000FFC
FFF8001FFC
FFFC003FF8
FFFF01FFF8
FFFFFFFFF0
FFFFFFFFE0
FFBFFFFFC0
FFBFFFFF80
FF9FFFFF00
FF87FFFE00
FF81FFF800
FF807F8000
FF80000000
FF80000000
FF80000000
FF80000000
FF80000000
FF80000000
FF80000000
FF80000000
FF80000000
FF80000000
FF80000000
FF80000000
FF80000000
FF80000000
FF80000000
FF80000000
ENDCHAR
STARTCHAR q
ENCODING 113
SWIDTH 646 0
DWIDTH 48 0
BBX 40 56 4 -17
BITMAP
0001F80000
001FFF01FF
007FFFC1FF
00FFFFF1FF
03FFFFF9FF
07FFFFFDFF
0FFFFFFFFF
0FFFFFFFFF
1FFF83FFFF
3FFC007FFF
3FF8001FFF
7FF0000FFF
7FE0000FFF
7FE00007FF
FFC00003FF
FFC00003FF
FF800003FF
FF800003FF
FF800003FF
FF800001FF
FF800001FF
FF800003FF
FF800003FF
FF800003FF
FFC00003FF
FFC00003FF
7FC00007FF
7FE00007FF
7FF0000FFF
3FF8001FFF
3FFC007FFF
1FFF01FFFF
1FFFFFFFFF
0FFFFFFFFF
07FFFFFFFF
03FFFFFBFF
01FFFFF3FF
007FFFC3FF
001FFF83FF
0003FC03FF
00000003FF
00000003FF
00000003FF
00000003FF
00000003FF
00000003FF
00000003FF
00000003FF
00000003FF
00000003FF
00000003FF
00000003FF
00000003FF
00000003FF
00000003FF
00000003FF
ENDCHAR
STARTCHAR r
ENCODING 114
SWIDTH 397 0
DWIDTH 30 0
BBX 23 39 5 0
BITMAP
00000E
FF00FE
FF03FE
FF07FE
FF0FFE
FF9FFE
FFBFFE
FFFFFE
FFFFFE
FFFFFE
FFFE00
FFF800
FFF000
FFE000
FFC000
FFC000
FFC000
FF8000
FF8000
FF8000
FF8000
FF8000
FF8000
FF8000
FF8000
FF8000
FF8000
FF8000
FF8000
FF8000
FF8000
FF8000
FF8000
FF8000
FF8000
FF8000
FF8000
FF8000
FF8000
ENDCHAR
STARTCHAR s
ENCODING 115
SWIDTH 523 0
DWIDTH 39 0
BBX 33 40 3 -1
BITMAP
0003E00000
007FFE0000
01FFFF8000
07FFFFE000
0FFFFFF000
1FFFFFF800
1FFFFFF800
3FFE7FFC00
3FF00FFC00
3FE003FE00
7FC003FE00
7FC001FE00
7FC0000000
7FE0000000
3FF0000000
3FFE000000
3FFFE00000
1FFFFE0000
0FFFFFC000
07FFFFF000
01FFFFFC00
003FFFFE00
0007FFFE00
00003FFF00
000007FF00
000003FF00
000001FF00
FF8001FF80
FF8001FF80
FFC001FF00
7FE001FF00
7FF003FF00
3FFC0FFF00
3FFFFFFE00
1FFFFFFC00
0FFFFFFC00
07FFFFF000
01FFFFE000
007FFF8000
000FFC0000
ENDCHAR
STARTCHAR t
ENCODING 116
SWIDTH 421 0
DWIDTH 32 0
BBX 26 48 2 0
BITMAP
00FF0000
00FF0000
00FF0000
00FF0000
01FF0000
01FF0000
01FF0000
01FF0000
01FF0000
01FF0000
FFFFFFC0
FFFFFFC0
FFFFFFC0
FFFFFFC0
FFFFFFC0
FFFFFFC0
FFFFFFC0
FFFFFFC0
01FF0000
01FF0000
01FF0000
01FF0000
01FF0000
01FF0000
01FF0000
01FF0000
01FF0000
01FF0000
01FF0000
01FF0000
01FF0000
01FF0000
01FF0000
01FF0000
01FF0000
01FF0000
01FF0000
01FF0000
01FF0000
01FF8000
01FFFFC0
00FFFFC0
00FFFFC0
007FFFC0
003FFFC0
001FFFC0
000FFFC0
0001FFC0
ENDCHAR
STARTCHAR u
ENCODING 117
SWIDTH 604 0
DWIDTH 45 0
BBX 36 39 4 -1
BITMAP
FFC0001FF0
FFC0001FF0
FFC0001FF0
FFC0001FF0
FFC0001FF0
FFC0001FF0
FFC0001FF0
FFC0001FF0
FFC0001FF0
FFC0001FF0
FFC0001FF0
FFC0001FF0
FFC0001FF0
FFC0001FF0
FFC0001FF0
FFC0001FF0
FFC0001FF0
FFC0001FF0
FFC0001FF0
FFC0001FF0
FFC0001FF0
FFC0001FF0
FFC0001FF0
7FC0001FF0
7FC0001FF0
7FC0003FF0
7FC0003FF0
7FE0007FF0
7FE0007FF0
7FF001FFF0
3FFC03FFF0
3FFFFFFFF0
1FFFFFEFF0
1FFFFFEFF0
0FFFFFCFF0
07FFFF8FF0
03FFFE0FF0
00FFFC0FF0
001FE00000
ENDCHAR
STARTCHAR v
ENCODING 118
SWIDTH 554 0
DWIDTH 42 0
BBX 39 38 1 0
BITMAP
FFC00003FE
7FC00007FE
7FE00007FC
3FE00007FC
3FE0000FFC
3FF0000FF8
1FF0000FF8
1FF0001FF0
1FF8001FF0
0FF8001FF0
0FF8003FE0
07FC003FE0
07FC003FE0
07FC007FC0
03FE007FC0
03FE007F80
03FE00FF80
01FF00FF80
01FF00FF00
00FF01FF00
00FF81FF00
00FF81FE00
007F83FE00
007FC3FE00
007FC3FC00
003FE7FC00
003FE7F800
003FEFF800
001FFFF800
001FFFF000
000FFFF000
000FFFF000
000FFFE000
0007FFE000
0007FFC000
0007FFC000
0003FFC000
0003FF8000
ENDCHAR
STARTCHAR w
ENCODING 119
SWIDTH 803 0
DWIDTH 60 0
BBX 58 38 1 0
BITMAP
FF8000FFC0007FC0
7FC000FFC0007F80
7FC001FFE000FF80
7FC001FFE000FF80
3FC001FFE000FF80
3FE001FFF000FF00
3FE003FFF001FF00
1FE003FFF001FF00
1FE003FFF001FE00
1FF007FFF801FE00
1FF007FFF803FE00
0FF007F3F803FC00
0FF007F3FC03FC00
0FF80FF3FC03FC00
07F80FF1FC07FC00
07F80FE1FC07F800
07F81FE1FE07F800
03FC1FE1FE07F800
03FC1FC0FE0FF000
03FC1FC0FF0FF000
03FC3FC0FF0FF000
01FE3FC07F0FF000
01FE3F807F1FE000
01FE3F807F9FE000
00FE7F803F9FE000
00FF7F003F9FC000
00FF7F003FBFC000
00FFFF003FFFC000
007FFF001FFFC000
007FFE001FFF8000
007FFE001FFF8000
003FFE000FFF8000
003FFC000FFF0000
003FFC000FFF0000
003FFC000FFF0000
001FFC0007FE0000
001FF80007FE0000
001FF80007FE0000
ENDCHAR
STARTCHAR x
ENCODING 120
SWIDTH 549 0
DWIDTH 41 0
BBX 39 38 1 0
BITMAP
FFC00007FE
7FE0000FFC
3FF0001FF8
1FF0001FF0
0FF8003FF0
0FFC007FE0
07FE007FC0
03FE00FFC0
03FF01FF80
01FF81FF00
00FF83FE00
00FFC7FE00
007FE7FC00
003FEFF800
001FFFF800
001FFFF000
000FFFE000
0007FFE000
0007FFC000
0003FFC000
0007FFC000
000FFFE000
001FFFF000
001FFFF800
003FEFF800
007FEFFC00
007FC7FE00
00FF83FE00
01FF81FF00
03FF01FF80
03FE00FF80
07FE007FC0
0FFC007FE0
0FF8003FF0
1FF8001FF0
3FF0001FF8
3FE0000FFC
FFE00007FE
ENDCHAR
STARTCHAR y
ENCODING 121
SWIDTH 590 0
DWIDTH 44 0
BBX 42 55 1 -17
BITMAP
FFC00000FFC0
7FE00000FF80
3FE00001FF80
3FF00001FF00
3FF00003FF00
1FF80003FE00
1FF80003FE00
0FFC0007FE00
0FFC0007FC00
07FC000FFC00
07FE000FF800
03FE000FF800
03FF001FF000
03FF001FF000
01FF803FF000
01FF803FE000
00FF807FE000
00FFC07FC000
007FC07FC000
007FE0FF8000
003FE0FF8000
003FF1FF8000
003FF1FF0000
001FF9FF0000
001FFBFE0000
000FFBFE0000
000FFFFC0000
0007FFFC0000
0007FFF80000
0003FFF80000
0003FFF80000
0001FFF00000
0001FFF00000
0001FFE00000
00007FE00000
00007FC00000
00007FC00000
0000FFC00000
0000FF800000
0001FF800000
0001FF000000
0003FF000000
0003FE000000
0007FE000000
0007FC000000
0007FC000000
000FFC000000
000FF8000000
001FF8000000
001FF0000000
003FF0000000
003FE0000000
007FE0000000
007FE0000000
007FC0000000
ENDCHAR
STARTCHAR z
ENCODING 122
SWIDTH 481 0
DWIDTH 36 0
BBX 30 38 3 0
BITMAP
FFFFFFF8
FFFFFFF8
FFFFFFF8
FFFFFFF8
FFFFFFF8
FFFFFFF8
FFFFFFF8
FFFFFFF8
00003FF8
00003FF0
00007FE0
0000FFC0
0001FF80
0003FF00
0007FE00
000FFE00
000FFC00
001FF800
003FF000
007FE000
00FFC000
01FF8000
01FF8000
03FF0000
07FE0000
0FFC0000
1FF80000
3FF00000
7FE00000
7FE00000
FFC00000
FFFFFFFC
FFFFFFFC
FFFFFFFC
FFFFFFFC
FFFFFFFC
FFFFFFFC
FFFFFFFC
ENDCHAR
STARTCHAR braceleft
ENCODING 123
SWIDTH 458 0
DWIDTH 34 0
BBX 24 74 6 -13
BITMAP
0000FF
0007FF
001FFF
003FFF
007FFF
00FFFF
00FFFF
01FFFF
01FF80
01FF00
01FF00
01FE00
01FE00
01FE00
01FE00
01FE00
01FE00
01FF00
01FF00
01FF00
00FF00
00FF00
00FF80
00FF80
00FF80
00FF80
00FF80
00FF80
00FF80
01FF00
01FF00
03FF00
0FFE00
FFFE00
FFFC00
FFF000
FFC000
FFC000
FFF000
FFFC00
FFFE00
0FFE00
03FF00
01FF00
01FF00
00FF80
00FF80
00FF80
00FF80
00FF80
00FF80
00FF80
00FF00
00FF00
01FF00
01FF00
01FF00
01FE00
01FE00
01FE00
01FE00
01FE00
01FE00
01FF00
01FF00
01FFC0
01FFFF
00FFFF
00FFFF
007FFF
003FFF
001FFF
0007FF
00007F
ENDCHAR
STARTCHAR bar
ENCODING 124
SWIDTH 261 0
DWIDTH 20 0
BBX 9 62 5 -8
BITMAP
FF80
FF80
FF80
FF80
FF80
FF80
FF80
FF80
FF80
FF80
FF80
FF80
FF80
FF80
FF80
FF80
FF80
FF80
FF80
FF80
FF80
FF80
FF80
FF80
FF80
FF80
FF80
FF80
FF80
FF80
FF80
FF80
FF80
FF80
FF80
FF80
FF80
FF80
FF80
FF80
FF80
FF80
FF80
FF80
FF80
FF80
FF80
FF80
FF80
FF80
FF80
FF80
FF80
FF80
FF80
FF80
FF80
FF80
FF80
FF80
FF80
FF80
ENDCHAR
STARTCHAR braceright
ENCODING 125
SWIDTH 458 0
DWIDTH 34 0
BBX 24 74 4 -13
BITMAP
FF8000
FFF000
FFF800
FFFE00
FFFE00
FFFF00
FFFF80
FFFF80
01FF80
00FFC0
007FC0
007FC0
007FC0
007FC0
007FC0
007FC0
007F80
007F80
00FF80
00FF80
00FF80
00FF80
00FF00
00FF00
00FF00
00FF00
00FF00
00FF00
00FF80
00FF80
00FFC0
007FE0
007FF8
003FFF
001FFF
000FFF
0003FF
0003FF
000FFF
001FFF
003FFF
007FF0
007FC0
00FF80
00FF80
00FF00
00FF00
00FF00
00FF00
00FF00
00FF00
00FF00
00FF80
00FF80
00FF80
00FF80
007F80
007F80
007FC0
007FC0
007FC0
007FC0
007FC0
007FC0
00FFC0
01FF80
FFFF80
FFFF80
FFFF00
FFFE00
FFFC00
FFF800
FFE000
FE0000
ENDCHAR
STARTCHAR asciitilde
ENCODING 126
SWIDTH 571 0
DWIDTH 43 0
BBX 37 13 3 17
BITMAP
01FF0003F8
07FFC003F8
0FFFF007F0
1FFFFC0FF0
1FFFFF3FF0
3FFFFFFFE0
7FFFFFFFE0
7FFFFFFFC0
7F81FFFFC0
FF00FFFF80
FE003FFF00
FE000FFC00
FE0001C000
ENDCHAR
ENDFONT
